<?xml version="1.0" encoding="UTF-8"?>
<svg xmlns="http://www.w3.org/2000/svg" xmlns:xlink="http://www.w3.org/1999/xlink" width="1210.17pt" height="1141.43pt" viewBox="0 0 1210.17 1141.43" version="1.1">
<defs>
<clipPath id="clip1">
  <path d="M 807 398 L 1210.164062 398 L 1210.164062 672 L 807 672 Z M 807 398 "/>
</clipPath>
<clipPath id="clip2">
  <path d="M 457 955 L 752 955 L 752 1141.429688 L 457 1141.429688 Z M 457 955 "/>
</clipPath>
<clipPath id="clip3">
  <path d="M 144 960 L 440 960 L 440 1141.429688 L 144 1141.429688 Z M 144 960 "/>
</clipPath>
</defs>
<g id="surface1">
<path style=" stroke:none;fill-rule:nonzero;fill:rgb(77.999878%,11.799622%,0%);fill-opacity:1;" d="M 467.511719 111.496094 C 464.511719 121.765625 467.960938 132.34375 469.710938 142.515625 C 473.59375 159.984375 477.003906 177.664062 477.671875 195.59375 C 478.992188 210.863281 478.753906 226.476562 475.144531 241.445312 C 472.492188 250.585938 469.164062 259.566406 464.933594 268.105469 C 459.78125 277.773438 452.402344 286.375 443.113281 292.285156 C 433.941406 298.09375 423.261719 301.433594 412.472656 302.316406 C 401.632812 303.175781 391.042969 299.804688 381.023438 296.054688 C 370.921875 292.296875 362.34375 285.574219 354.3125 278.554688 C 341.324219 265.65625 331.902344 249.496094 325.621094 232.375 C 324.472656 229.753906 323.632812 226.464844 320.832031 225.125 C 318.773438 223.90625 316.121094 225.113281 314.914062 226.964844 C 311.472656 232.433594 308.59375 238.234375 306.074219 244.183594 C 298.671875 261.894531 290.882812 279.445312 284.300781 297.484375 C 280.832031 307.765625 278.441406 318.363281 275.871094 328.886719 C 271.941406 348.515625 269.09375 368.636719 271.03125 388.664062 C 272.511719 412.207031 276.933594 435.414062 281.234375 458.566406 C 281.472656 460.484375 281.394531 462.433594 281.34375 464.386719 C 274.003906 462.324219 268.242188 457.175781 262.324219 452.664062 C 253.53125 446.15625 246.59375 437.113281 236.550781 432.363281 C 234.382812 446.65625 241.632812 459.824219 244.332031 473.484375 C 246.011719 482.523438 247.574219 491.574219 249.78125 500.503906 C 251.421875 515.15625 254.441406 529.695312 254.5625 544.484375 C 254.683594 558.316406 254.421875 572.503906 249.53125 585.625 C 249.273438 587.113281 247.941406 588.765625 248.734375 590.246094 C 234.582031 587.59375 218.933594 585.476562 205.773438 592.824219 C 202.183594 595.207031 197.832031 598.585938 198.601562 603.445312 C 207.550781 602.175781 215.0625 595.804688 224.3125 595.695312 C 225.242188 605.515625 225.050781 615.464844 227.121094 625.15625 C 225.492188 625.746094 223.941406 626.546875 222.582031 627.636719 C 216.800781 631.996094 210.414062 635.625 203.472656 637.765625 C 193.753906 640.816406 183.683594 643.113281 173.453125 643.335938 C 163.210938 642.964844 152.773438 641.175781 143.683594 636.234375 C 134.582031 631.863281 126.03125 626.164062 119.074219 618.804688 C 115.011719 614.535156 110.300781 610.957031 106.183594 606.753906 C 102.351562 602.886719 99.402344 598.195312 95.121094 594.765625 C 94.152344 593.804688 92.753906 593.726562 91.503906 593.40625 C 92.902344 610.535156 98.203125 626.984375 102.210938 643.613281 C 104.542969 653.34375 107.203125 663.003906 110.503906 672.457031 C 119.164062 701.394531 131.433594 729.105469 144.8125 756.136719 C 153.351562 772.15625 163.074219 787.523438 173.78125 802.175781 C 188.921875 822.753906 204.171875 843.566406 223.421875 860.554688 C 233.234375 868.734375 243.421875 876.476562 252.953125 885.003906 C 264.921875 895.675781 279.023438 903.554688 293.363281 910.566406 C 314.261719 922.496094 336.914062 931.394531 360.351562 936.816406 C 382.023438 941.796875 404.371094 941.585938 426.472656 941.625 C 434.761719 941.433594 443.082031 941.933594 451.363281 941.164062 C 463.300781 939.714844 475.253906 938.285156 487.09375 936.136719 C 498.800781 934.324219 510.132812 930.765625 521.511719 927.574219 C 535.550781 923.316406 549.671875 919.125 563.09375 913.144531 C 570.644531 909.363281 578.542969 906.316406 585.761719 901.875 C 598.441406 894.445312 611.5625 887.773438 624.050781 880.023438 C 632.914062 874.484375 640.953125 867.765625 649.023438 861.144531 C 658.722656 853.253906 667.792969 844.636719 676.683594 835.84375 C 682.3125 831.136719 687.523438 825.964844 692.800781 820.886719 C 699.902344 814.933594 705.332031 807.363281 711.023438 800.136719 C 718.503906 790.886719 725.121094 780.984375 732.363281 771.554688 C 740.972656 758.476562 748.082031 744.414062 753.742188 729.824219 C 757.902344 719.285156 761.933594 708.664062 764.621094 697.644531 C 766.074219 691.285156 768.472656 685.207031 769.882812 678.835938 C 775.144531 659.046875 775.710938 638.476562 777.972656 618.226562 C 778.824219 611.664062 778.582031 605.035156 778.59375 598.445312 C 778.421875 575.625 775.613281 552.90625 771.753906 530.433594 C 770.144531 521.074219 768.734375 511.644531 766.121094 502.496094 C 753.984375 505.90625 746.234375 517.585938 734.121094 521.226562 C 721.933594 526.074219 708.351562 522.464844 697.101562 516.84375 C 691.414062 513.40625 686.074219 509.214844 681.902344 504.003906 C 674.28125 495.535156 668.152344 485.796875 663.34375 475.496094 C 660.550781 470.65625 658.113281 465.613281 656.722656 460.183594 C 652.363281 448.925781 649.351562 437.226562 646.453125 425.523438 C 641.09375 404.605469 640.421875 382.914062 638.34375 361.523438 C 636.523438 341.214844 635.414062 320.886719 634.402344 300.535156 C 633.851562 286.933594 634.113281 272.714844 628.542969 260.003906 C 624.324219 263.207031 621.800781 267.976562 619.472656 272.59375 C 615.183594 281.714844 613.222656 291.734375 608.8125 300.816406 C 605.222656 307.875 602.144531 315.234375 597.800781 321.894531 C 597.441406 322.605469 595.710938 324.183594 595.484375 322.515625 C 589.953125 308.644531 583.664062 295.105469 577.433594 281.546875 C 564.492188 255.386719 551.503906 229.226562 537.28125 203.726562 C 527.722656 187.875 517.863281 172.15625 506.453125 157.546875 C 495.03125 143.585938 485.292969 128.246094 472.703125 115.253906 C 471.191406 113.707031 469.363281 112.554688 467.511719 111.496094 M 352.253906 -0.00390625 C 360.542969 1.644531 368.09375 5.585938 375.652344 9.207031 C 392.234375 17.125 407.210938 27.984375 421.253906 39.746094 C 447.011719 59.066406 467.871094 83.785156 490.722656 106.265625 C 517.421875 134.195312 539.710938 165.90625 561.09375 197.984375 C 571.253906 213.164062 582.101562 227.894531 591.53125 243.566406 C 597.574219 253.503906 603.421875 263.554688 609.3125 273.585938 C 610.441406 273.164062 612.324219 273.675781 612.710938 272.144531 C 617.082031 261.214844 618.621094 249.226562 617.753906 237.515625 C 617.3125 225.476562 613.722656 213.894531 611.351562 202.175781 C 624.074219 217.09375 634.273438 233.933594 644.210938 250.773438 C 670.914062 298.175781 688.773438 350.433594 697.683594 404.066406 C 701.191406 425.734375 699.722656 448.15625 706.132812 469.335938 C 708.203125 477.066406 711.5625 484.445312 716.09375 491.046875 C 719.664062 496.105469 726.210938 499.015625 732.351562 498.023438 C 737.753906 496.746094 740.484375 491.394531 742.773438 486.84375 C 748.960938 475.074219 748.882812 461.324219 748.082031 448.394531 C 746.710938 432.34375 742.652344 416.714844 738.703125 401.15625 C 743.484375 405.054688 745.871094 410.996094 748.460938 416.425781 C 763.8125 451.136719 778.832031 486.113281 789.902344 522.476562 C 793.3125 532.265625 794.492188 542.625 797.121094 552.625 C 802.113281 569.34375 804.542969 586.664062 807.59375 603.804688 C 807.574219 605.566406 807.5625 607.335938 807.644531 609.113281 C 808.761719 611.136719 809.523438 613.34375 809.773438 615.65625 C 810.003906 619.046875 810.0625 622.433594 810.253906 625.824219 C 810.351562 628.023438 810.453125 630.234375 810.550781 632.457031 C 810.664062 635.386719 810.800781 638.324219 810.953125 641.265625 C 811.921875 660.144531 808.972656 678.964844 805.183594 697.394531 C 797.203125 734.816406 779.441406 769.925781 755.324219 799.523438 C 741.152344 815.933594 727.023438 832.503906 710.574219 846.726562 C 691.851562 863.394531 671.472656 878.09375 650.171875 891.273438 C 641.523438 896.675781 633.28125 902.785156 624.011719 907.125 C 611.402344 913.765625 598.152344 919.066406 585.394531 925.40625 C 573.472656 931.574219 561.191406 937.074219 548.664062 941.886719 C 534.292969 947.523438 519.621094 952.515625 504.453125 955.535156 C 500.003906 956.496094 495.550781 957.425781 491.082031 958.304688 C 485.132812 959.425781 479.101562 960.105469 473.101562 960.863281 C 469.210938 961.335938 465.3125 961.726562 461.414062 962.046875 C 452.644531 962.714844 443.832031 962.605469 435.0625 963.195312 C 431.382812 963.335938 427.703125 963.335938 424.023438 963.15625 C 417.773438 962.683594 411.492188 962.636719 405.253906 962.074219 C 401.632812 961.65625 398.011719 961.273438 394.394531 960.84375 C 337.761719 953.375 282.78125 932.945312 235.234375 901.246094 C 231.113281 898.683594 227.574219 895.074219 222.863281 893.59375 C 221.574219 891.734375 219.902344 890.195312 218.0625 888.894531 C 211.28125 883.925781 204.894531 878.457031 198.441406 873.074219 C 184.453125 860.546875 171.484375 846.855469 160.042969 831.933594 C 158.132812 829.375 155.972656 827.015625 153.953125 824.554688 C 151.074219 820.035156 147.78125 815.804688 144.671875 811.445312 C 139.101562 803.394531 133.871094 795.105469 128.960938 786.644531 C 127.121094 783.265625 125.550781 779.765625 123.824219 776.34375 C 114.472656 754.996094 106.234375 733.144531 98.234375 711.253906 C 96.753906 706.964844 95.273438 702.664062 93.832031 698.355469 C 92.09375 692.945312 90.273438 687.554688 88.601562 682.113281 C 87.523438 678.324219 86.363281 674.546875 85.3125 670.753906 C 80.671875 650.625 75.914062 630.535156 71.210938 610.433594 C 67.191406 591.675781 62.984375 572.773438 62.652344 553.515625 C 61.953125 539.875 61.0625 526.207031 61.691406 512.546875 C 61.792969 493.574219 65.894531 473.714844 77.863281 458.515625 C 80.941406 470.296875 83.011719 482.316406 85.992188 494.125 C 88.882812 506.863281 93.210938 519.207031 97.460938 531.535156 C 102.402344 545.816406 109.300781 560.085938 120.761719 570.285156 C 126.800781 575.824219 135.132812 578.84375 143.332031 577.824219 C 155.253906 576.554688 165.300781 568.65625 172.222656 559.265625 C 185.492188 542.535156 190.832031 520.636719 190.0625 499.566406 C 189.132812 481.683594 186.800781 463.714844 181.183594 446.65625 C 174.003906 422.515625 171.082031 397.105469 172.671875 371.964844 C 174.503906 338.636719 186.921875 305.605469 209.210938 280.546875 C 210.132812 298.296875 207.742188 317.675781 217.402344 333.574219 C 220.8125 326.035156 223.191406 318.09375 226.242188 310.414062 C 235.601562 288.066406 247.351562 266.566406 262.671875 247.714844 C 276.363281 229.894531 292.921875 214.523438 310.164062 200.207031 C 323.121094 189.304688 336.601562 179.003906 350.933594 169.964844 C 358.742188 165.105469 366.652344 160.273438 375.222656 156.84375 C 366.894531 179.296875 356.523438 202.023438 357.523438 226.523438 C 359.78125 255.574219 384.460938 281.144531 413.414062 284.425781 C 421.863281 285.484375 431.011719 282.273438 436.234375 275.394531 C 444.582031 265.023438 446.734375 251.335938 448.460938 238.523438 C 449.203125 227.476562 446.902344 216.546875 446.550781 205.535156 C 444.742188 172.273438 434.0625 140.15625 419.574219 110.386719 C 416.632812 104.554688 413.972656 98.585938 411.292969 92.636719 C 396.082031 59.175781 376.132812 27.925781 352.253906 -0.00390625 "/>
<path style=" stroke:none;fill-rule:nonzero;fill:rgb(77.999878%,11.799622%,0%);fill-opacity:1;" d="M 232.082031 596.484375 C 236.613281 596.265625 241.121094 596.675781 245.613281 597.214844 C 242.050781 604.035156 238.503906 610.90625 233.953125 617.132812 C 232.824219 610.316406 231.890625 603.40625 232.082031 596.484375 "/>
<path style=" stroke:none;fill-rule:nonzero;fill:rgb(87.799072%,14.898682%,0%);fill-opacity:1;" d="M 467.511719 111.496094 C 469.363281 112.554688 471.191406 113.707031 472.703125 115.253906 C 485.292969 128.246094 495.03125 143.585938 506.453125 157.546875 C 517.863281 172.15625 527.722656 187.875 537.28125 203.726562 C 551.503906 229.226562 564.492188 255.386719 577.433594 281.546875 C 583.664062 295.105469 589.953125 308.644531 595.484375 322.515625 C 595.710938 324.183594 597.441406 322.605469 597.800781 321.894531 C 602.144531 315.234375 605.222656 307.875 608.8125 300.816406 C 613.222656 291.734375 615.183594 281.714844 619.472656 272.59375 C 621.800781 267.976562 624.324219 263.207031 628.542969 260.003906 C 634.113281 272.714844 633.851562 286.933594 634.402344 300.535156 C 635.414062 320.886719 636.523438 341.214844 638.34375 361.523438 C 640.421875 382.914062 641.09375 404.605469 646.453125 425.523438 C 649.351562 437.226562 652.363281 448.925781 656.722656 460.183594 C 658.113281 465.613281 660.550781 470.65625 663.34375 475.496094 C 668.152344 485.796875 674.28125 495.535156 681.902344 504.003906 C 686.074219 509.214844 691.414062 513.40625 697.101562 516.84375 C 708.351562 522.464844 721.933594 526.074219 734.121094 521.226562 C 746.234375 517.585938 753.984375 505.90625 766.121094 502.496094 C 768.734375 511.644531 770.144531 521.074219 771.753906 530.433594 C 775.613281 552.90625 778.421875 575.625 778.59375 598.445312 C 778.582031 605.035156 778.824219 611.664062 777.972656 618.226562 C 775.710938 638.476562 775.144531 659.046875 769.882812 678.835938 C 768.472656 685.207031 766.074219 691.285156 764.621094 697.644531 C 761.933594 708.664062 757.902344 719.285156 753.742188 729.824219 C 748.082031 744.414062 740.972656 758.476562 732.363281 771.554688 C 725.121094 780.984375 718.503906 790.886719 711.023438 800.136719 C 705.332031 807.363281 699.902344 814.933594 692.800781 820.886719 C 687.523438 825.964844 682.3125 831.136719 676.683594 835.84375 C 667.792969 844.636719 658.722656 853.253906 649.023438 861.144531 C 640.953125 867.765625 632.914062 874.484375 624.050781 880.023438 C 611.5625 887.773438 598.441406 894.445312 585.761719 901.875 C 578.542969 906.316406 570.644531 909.363281 563.09375 913.144531 C 549.671875 919.125 535.550781 923.316406 521.511719 927.574219 C 510.132812 930.765625 498.800781 934.324219 487.09375 936.136719 C 475.253906 938.285156 463.300781 939.714844 451.363281 941.164062 C 443.082031 941.933594 434.761719 941.433594 426.472656 941.625 C 404.371094 941.585938 382.023438 941.796875 360.351562 936.816406 C 336.914062 931.394531 314.261719 922.496094 293.363281 910.566406 C 279.023438 903.554688 264.921875 895.675781 252.953125 885.003906 C 243.421875 876.476562 233.234375 868.734375 223.421875 860.554688 C 204.171875 843.566406 188.921875 822.753906 173.78125 802.175781 C 163.074219 787.523438 153.351562 772.15625 144.8125 756.136719 C 131.433594 729.105469 119.164062 701.394531 110.503906 672.457031 C 107.203125 663.003906 104.542969 653.34375 102.210938 643.613281 C 98.203125 626.984375 92.902344 610.535156 91.503906 593.40625 C 92.753906 593.726562 94.152344 593.804688 95.121094 594.765625 C 99.402344 598.195312 102.351562 602.886719 106.183594 606.753906 C 110.300781 610.957031 115.011719 614.535156 119.074219 618.804688 C 126.03125 626.164062 134.582031 631.863281 143.683594 636.234375 C 152.773438 641.175781 163.210938 642.964844 173.453125 643.335938 C 183.683594 643.113281 193.753906 640.816406 203.472656 637.765625 C 210.414062 635.625 216.800781 631.996094 222.582031 627.636719 C 223.941406 626.546875 225.492188 625.746094 227.121094 625.15625 C 228.832031 635.324219 233.003906 644.804688 236.523438 654.425781 C 240.550781 664.195312 244.613281 673.984375 249.703125 683.253906 C 242.351562 687.636719 234.074219 690.085938 225.761719 691.90625 C 214.273438 694.433594 201.914062 693.613281 191.113281 688.796875 C 183.863281 685.535156 176.914062 681.40625 171.164062 675.875 C 166.53125 671.476562 161.582031 667.40625 157.234375 662.726562 C 154.292969 659.746094 151.710938 655.976562 147.402344 654.945312 C 148.183594 667.015625 151.691406 678.683594 154.632812 690.355469 C 163.082031 724.957031 176.03125 758.476562 193.351562 789.59375 C 203.152344 806.613281 215.292969 822.125 227.921875 837.105469 C 238.3125 849.636719 249.933594 861.304688 263.460938 870.445312 C 272.234375 876.246094 279.992188 883.445312 288.894531 889.066406 C 297.28125 893.984375 306.09375 898.125 314.992188 902.046875 C 331.042969 909.816406 348.0625 915.585938 365.523438 919.226562 C 387.914062 923.914062 410.933594 922.484375 433.644531 922.066406 C 445.683594 921.894531 457.542969 919.574219 469.402344 917.695312 C 483.800781 915.574219 497.703125 911.105469 511.574219 906.816406 C 529.09375 901.363281 546.222656 894.496094 562.113281 885.265625 C 572.632812 879.085938 583.511719 873.515625 593.832031 866.996094 C 604.613281 859.613281 614.800781 851.394531 624.59375 842.746094 C 631.851562 835.625 639.421875 828.835938 646.972656 822.023438 C 659.601562 811.183594 669.042969 797.324219 679.011719 784.136719 C 695.5625 762.984375 704.914062 737.234375 711.324219 711.425781 C 717.222656 692.023438 717.222656 671.566406 718.582031 651.515625 C 718.773438 622.15625 713.03125 593.175781 706.832031 564.59375 C 700.863281 565.125 696.691406 569.855469 692.050781 573.074219 C 685.234375 578.375 676.632812 582.164062 667.832031 581.015625 C 659.960938 579.894531 652.09375 577.15625 645.921875 572.035156 C 635.191406 562.84375 628.28125 550.113281 622.644531 537.375 C 617.992188 524.476562 615.09375 511.023438 612.601562 497.554688 C 610.261719 484.695312 610.472656 471.574219 609.914062 458.566406 C 609.5625 441.894531 609.652344 425.226562 609.953125 408.566406 C 610.363281 393.515625 612.8125 378.175781 609.164062 363.335938 C 599.632812 371.40625 597.441406 384.457031 591.851562 395.066406 C 587.894531 402.207031 584.773438 409.933594 579.414062 416.195312 C 576.902344 410.105469 575.5625 403.625 573.492188 397.394531 C 567.113281 377.394531 560.28125 357.535156 553.144531 337.796875 C 545.234375 314.554688 535.933594 291.664062 523.371094 270.503906 C 517.242188 260.296875 512.253906 249.386719 505.222656 239.726562 C 503.824219 237.773438 502.03125 236.144531 500.242188 234.566406 C 496.882812 240.414062 497.042969 247.386719 496.902344 253.925781 C 497.484375 273.796875 498.78125 293.773438 496.121094 313.566406 C 494.542969 325.625 493.011719 337.925781 488.023438 349.144531 C 482.691406 361.316406 476.523438 373.574219 466.691406 382.765625 C 454.960938 393.925781 438.582031 400.355469 422.371094 399.425781 C 408.84375 397.90625 395.484375 392.796875 385.203125 383.726562 C 380.550781 380.085938 377.3125 375.066406 372.902344 371.175781 C 372.003906 368.816406 371.09375 366.464844 369.941406 364.226562 C 369.710938 364.003906 369.234375 363.554688 368.992188 363.335938 C 364.800781 356.546875 362.011719 349.003906 359.652344 341.414062 C 358.753906 339.183594 358.042969 336.035156 355.300781 335.464844 C 352.574219 334.914062 350.421875 337.074219 349.011719 339.113281 C 343.011719 347.457031 338.511719 356.726562 333.832031 365.835938 C 325.351562 382.535156 316.382812 399.164062 311.121094 417.234375 C 305.800781 435.285156 301.203125 453.984375 302.113281 472.933594 C 293.382812 489.90625 289.582031 509.105469 289.792969 528.113281 C 283.210938 523.773438 278.132812 517.265625 270.644531 514.304688 C 268.664062 527.324219 275.191406 539.316406 276.972656 551.914062 C 277.914062 558.484375 279.273438 564.976562 280.523438 571.496094 C 283.203125 592.644531 286.191406 614.375 281.300781 635.433594 C 277.183594 651.066406 270.453125 666.816406 257.984375 677.613281 C 252.871094 669.515625 248.472656 661.023438 244.742188 652.207031 C 240.242188 640.824219 235.824219 629.296875 233.953125 617.136719 C 238.503906 610.90625 242.050781 604.035156 245.613281 597.214844 C 247.652344 597.144531 249.691406 596.914062 251.734375 596.664062 C 251.171875 594.324219 250.011719 592.246094 248.734375 590.246094 C 247.941406 588.765625 249.273438 587.113281 249.53125 585.625 C 254.421875 572.503906 254.683594 558.316406 254.5625 544.484375 C 254.441406 529.695312 251.421875 515.15625 249.78125 500.503906 C 247.574219 491.574219 246.011719 482.523438 244.332031 473.484375 C 241.632812 459.824219 234.382812 446.65625 236.550781 432.363281 C 246.59375 437.113281 253.53125 446.15625 262.324219 452.664062 C 268.242188 457.175781 274.003906 462.324219 281.34375 464.386719 C 281.394531 462.433594 281.472656 460.484375 281.234375 458.566406 C 276.933594 435.414062 272.511719 412.207031 271.03125 388.664062 C 269.09375 368.636719 271.941406 348.515625 275.871094 328.886719 C 278.441406 318.363281 280.832031 307.765625 284.300781 297.484375 C 290.882812 279.445312 298.671875 261.894531 306.074219 244.183594 C 308.59375 238.234375 311.472656 232.433594 314.914062 226.964844 C 316.121094 225.113281 318.773438 223.90625 320.832031 225.125 C 323.632812 226.464844 324.472656 229.753906 325.621094 232.375 C 331.902344 249.496094 341.324219 265.65625 354.3125 278.554688 C 362.34375 285.574219 370.921875 292.296875 381.023438 296.054688 C 391.042969 299.804688 401.632812 303.175781 412.472656 302.316406 C 423.261719 301.433594 433.941406 298.09375 443.113281 292.285156 C 452.402344 286.375 459.78125 277.773438 464.933594 268.105469 C 469.164062 259.566406 472.492188 250.585938 475.144531 241.445312 C 478.753906 226.476562 478.992188 210.863281 477.671875 195.59375 C 477.003906 177.664062 473.59375 159.984375 469.710938 142.515625 C 467.960938 132.34375 464.511719 121.765625 467.511719 111.496094 "/>
<path style=" stroke:none;fill-rule:nonzero;fill:rgb(93.699646%,30.999756%,0.39978%);fill-opacity:1;" d="M 483.851562 369.65625 C 479.84375 374.035156 479.28125 380.183594 478.011719 385.714844 C 477.011719 391.355469 475.222656 396.796875 474.074219 402.394531 C 486.050781 404.914062 498.53125 403.335938 510.414062 406.503906 C 519.324219 407.996094 526.652344 413.636719 534.851562 417.046875 C 535.121094 408.625 532.042969 400.554688 527.191406 393.796875 C 520.652344 383.734375 509.300781 378.433594 498.351562 374.59375 C 493.460938 373.105469 488.851562 370.796875 483.851562 369.65625 M 496.902344 253.925781 C 497.042969 247.386719 496.882812 240.414062 500.242188 234.566406 C 502.03125 236.144531 503.824219 237.773438 505.222656 239.726562 C 512.253906 249.386719 517.242188 260.296875 523.371094 270.503906 C 535.933594 291.664062 545.234375 314.554688 553.140625 337.796875 C 560.28125 357.535156 567.113281 377.394531 573.492188 397.394531 C 575.5625 403.625 576.902344 410.105469 579.414062 416.195312 C 584.773438 409.933594 587.890625 402.207031 591.851562 395.066406 C 597.441406 384.457031 599.632812 371.40625 609.164062 363.335938 C 612.8125 378.175781 610.363281 393.515625 609.953125 408.566406 C 609.652344 425.226562 609.5625 441.894531 609.914062 458.566406 C 610.472656 471.574219 610.261719 484.695312 612.601562 497.554688 C 615.09375 511.023438 617.992188 524.476562 622.640625 537.375 C 628.28125 550.113281 635.191406 562.84375 645.921875 572.035156 C 652.09375 577.15625 659.960938 579.894531 667.832031 581.015625 C 676.632812 582.164062 685.234375 578.375 692.050781 573.074219 C 696.691406 569.855469 700.863281 565.125 706.832031 564.59375 C 713.03125 593.175781 718.773438 622.15625 718.582031 651.515625 C 717.222656 671.566406 717.222656 692.023438 711.324219 711.425781 C 704.914062 737.234375 695.5625 762.984375 679.011719 784.132812 C 669.042969 797.324219 659.601562 811.183594 646.972656 822.023438 C 639.421875 828.835938 631.851562 835.625 624.59375 842.746094 C 614.800781 851.394531 604.613281 859.613281 593.832031 866.996094 C 583.511719 873.515625 572.632812 879.085938 562.113281 885.265625 C 546.222656 894.496094 529.09375 901.363281 511.574219 906.816406 C 497.703125 911.105469 483.800781 915.574219 469.402344 917.695312 C 457.542969 919.574219 445.683594 921.894531 433.640625 922.066406 C 410.933594 922.484375 387.914062 923.914062 365.523438 919.226562 C 348.0625 915.585938 331.042969 909.816406 314.992188 902.046875 C 306.09375 898.125 297.28125 893.984375 288.890625 889.066406 C 279.992188 883.445312 272.234375 876.246094 263.460938 870.445312 C 249.933594 861.304688 238.3125 849.632812 227.921875 837.105469 C 215.292969 822.125 203.152344 806.613281 193.351562 789.59375 C 176.03125 758.476562 163.082031 724.957031 154.632812 690.355469 C 151.691406 678.683594 148.183594 667.015625 147.402344 654.945312 C 151.710938 655.976562 154.292969 659.746094 157.234375 662.726562 C 161.582031 667.40625 166.53125 671.476562 171.164062 675.875 C 176.914062 681.40625 183.863281 685.535156 191.113281 688.796875 C 201.914062 693.613281 214.273438 694.433594 225.761719 691.90625 C 234.074219 690.085938 242.351562 687.632812 249.703125 683.253906 C 254.972656 691.875 263.171875 698.882812 265.953125 708.914062 C 273.203125 736.054688 289.023438 759.914062 306.59375 781.457031 C 314.253906 790.085938 321.371094 799.214844 329.574219 807.375 C 344.824219 822.605469 364.421875 832.015625 382.324219 843.605469 C 393.164062 849.105469 404.484375 853.59375 415.734375 858.164062 C 425.921875 862.046875 436.78125 863.355469 447.371094 865.65625 C 455.953125 867.457031 464.722656 865.976562 473.382812 865.875 C 484.421875 865.746094 495.28125 863.484375 505.960938 860.863281 C 510.914062 859.65625 515.503906 857.40625 520.132812 855.355469 C 530.601562 850.925781 541.113281 846.214844 550.023438 839.023438 C 556.902344 833.363281 563.164062 826.996094 569.882812 821.132812 C 576.222656 815.496094 582.183594 809.246094 589.542969 804.894531 C 590.59375 813.132812 591.273438 821.613281 594.402344 829.394531 C 595.132812 829.363281 596.613281 829.296875 597.34375 829.265625 C 601.53125 819.625 599.140625 808.835938 595.53125 799.445312 C 594.332031 796.285156 590.300781 795.632812 587.421875 796.566406 C 580.390625 798.214844 575.792969 804.183594 570.324219 808.394531 C 569.261719 801.523438 567.09375 794.925781 565.800781 788.113281 C 561.902344 771.15625 558.863281 754.023438 555.832031 736.894531 C 563.691406 733.554688 572.300781 732.15625 579.742188 727.773438 C 599.953125 718.226562 618.460938 705.164062 634.152344 689.246094 C 638.671875 683.796875 644.011719 679.023438 648.003906 673.132812 C 656.414062 660.234375 662.390625 645.933594 667.492188 631.457031 C 669.890625 624.605469 673.261719 617.882812 673.53125 610.503906 C 673.753906 607.503906 673.933594 604.515625 674.132812 601.523438 C 667.042969 615.976562 662.082031 631.382812 654.292969 645.503906 C 643.574219 665.363281 629.800781 684.085938 611.582031 697.695312 C 602.203125 704.015625 593.253906 710.984375 583.210938 716.265625 C 568.011719 724.625 551.390625 730.296875 534.390625 733.59375 C 526.863281 735.554688 519.171875 736.734375 511.664062 738.765625 C 504.710938 740.683594 497.472656 741.066406 490.433594 742.605469 C 478.371094 744.324219 466.5625 747.554688 454.402344 748.566406 C 439.503906 750.433594 424.453125 749.882812 409.523438 748.855469 C 390.664062 746.746094 371.652344 745.105469 353.273438 740.144531 C 341.53125 736.726562 329.84375 733.054688 318.511719 728.445312 C 309.183594 724.707031 299.164062 722.125 291.082031 715.894531 C 284.101562 710.234375 277.710938 703.90625 271.484375 697.445312 C 266.234375 691.375 261.921875 684.574219 257.984375 677.613281 C 270.453125 666.816406 277.183594 651.066406 281.300781 635.433594 C 286.191406 614.375 283.203125 592.644531 280.523438 571.496094 C 279.273438 564.976562 277.914062 558.484375 276.972656 551.914062 C 275.191406 539.316406 268.664062 527.324219 270.640625 514.304688 C 278.132812 517.265625 283.210938 523.773438 289.792969 528.113281 C 289.460938 535.984375 290.871094 543.765625 291.652344 551.566406 C 292.414062 559.074219 295.503906 566.023438 297.742188 573.164062 C 300.074219 589.34375 307.832031 604.394531 317.613281 617.335938 C 327.003906 628.804688 338.082031 639.984375 352.5625 644.59375 C 363.992188 649.195312 376.914062 650.414062 388.871094 647.164062 C 403.960938 643.515625 417.371094 634.066406 426.671875 621.734375 C 433.242188 613.984375 437.433594 604.566406 441.152344 595.195312 C 441.640625 594.382812 441.742188 592.984375 442.914062 592.882812 C 444.414062 594.484375 445.601562 596.335938 446.871094 598.125 C 458.0625 614.003906 475.222656 625.457031 494.113281 629.894531 C 509.761719 633.457031 526.761719 630.113281 540.0625 621.183594 C 552.652344 613.144531 561.914062 600.796875 568.34375 587.484375 C 574.941406 572.773438 578.632812 556.664062 578.324219 540.523438 C 578.191406 533.816406 578.703125 527.066406 577.722656 520.40625 C 576.222656 502.644531 571.300781 484.796875 560.84375 470.15625 C 551.453125 456.585938 537.710938 445.515625 521.492188 441.546875 C 507.703125 438.515625 492.832031 440.09375 480.164062 446.394531 C 466.453125 453.066406 454.984375 464.023438 446.984375 476.933594 C 443.800781 481.445312 442.101562 486.773438 439.09375 491.394531 C 431.84375 473.925781 420.222656 458.136719 405.0625 446.734375 C 394.664062 438.964844 382.34375 433.566406 369.351562 432.324219 C 354.402344 430.515625 338.78125 434.753906 326.773438 443.835938 C 316.371094 451.386719 307.941406 461.503906 302.113281 472.933594 C 301.203125 453.984375 305.800781 435.285156 311.121094 417.234375 C 316.382812 399.164062 325.351562 382.535156 333.832031 365.835938 C 338.511719 356.726562 343.011719 347.457031 349.011719 339.113281 C 350.421875 337.074219 352.574219 334.914062 355.300781 335.464844 C 358.042969 336.035156 358.753906 339.183594 359.652344 341.414062 C 362.011719 349.003906 364.800781 356.546875 368.992188 363.335938 C 357.710938 367.445312 344.882812 369.476562 335.84375 377.957031 C 326.140625 389.484375 317.113281 402.695312 314.933594 417.945312 C 314.042969 423.265625 314.621094 428.707031 315.953125 433.90625 C 320.292969 431.394531 323.242188 427.175781 327.453125 424.496094 C 334.941406 419.535156 342.324219 414.144531 350.824219 411.046875 C 357.433594 408.824219 364.042969 406.535156 370.871094 405.085938 C 374.382812 404.375 377.78125 403.183594 381.03125 401.664062 C 380.0625 391.105469 376.574219 381.046875 372.902344 371.175781 C 377.3125 375.066406 380.550781 380.085938 385.203125 383.726562 C 395.484375 392.796875 408.84375 397.90625 422.371094 399.425781 C 438.582031 400.355469 454.960938 393.925781 466.691406 382.765625 C 476.523438 373.574219 482.691406 361.316406 488.023438 349.144531 C 493.011719 337.925781 494.542969 325.625 496.121094 313.566406 C 498.78125 293.773438 497.484375 273.796875 496.902344 253.925781 "/>
<path style=" stroke:none;fill-rule:nonzero;fill:rgb(0%,0%,0%);fill-opacity:1;" d="M 335.84375 377.953125 C 344.882812 369.476562 357.710938 367.445312 368.992188 363.335938 C 369.234375 363.554688 369.710938 364.003906 369.941406 364.226562 C 371.09375 366.464844 372.003906 368.816406 372.902344 371.175781 C 376.574219 381.046875 380.0625 391.105469 381.03125 401.664062 C 377.78125 403.183594 374.382812 404.375 370.871094 405.085938 C 364.042969 406.535156 357.433594 408.824219 350.824219 411.046875 C 342.324219 414.144531 334.941406 419.535156 327.453125 424.496094 C 323.242188 427.175781 320.292969 431.394531 315.953125 433.90625 C 314.621094 428.703125 314.042969 423.265625 314.933594 417.945312 C 317.113281 402.695312 326.144531 389.484375 335.84375 377.953125 "/>
<path style=" stroke:none;fill-rule:nonzero;fill:rgb(0%,0%,0%);fill-opacity:1;" d="M 483.851562 369.65625 C 488.851562 370.796875 493.460938 373.105469 498.351562 374.59375 C 509.300781 378.433594 520.652344 383.734375 527.191406 393.796875 C 532.042969 400.554688 535.121094 408.625 534.851562 417.046875 C 526.652344 413.636719 519.324219 407.996094 510.414062 406.503906 C 498.53125 403.335938 486.050781 404.914062 474.074219 402.394531 C 475.222656 396.796875 477.011719 391.355469 478.011719 385.714844 C 479.28125 380.183594 479.84375 374.035156 483.851562 369.65625 "/>
<g clip-path="url(#clip1)" clip-rule="nonzero">
<path style=" stroke:none;fill-rule:nonzero;fill:rgb(56.098938%,1.599121%,1.599121%);fill-opacity:1;" d="M 1096.402344 616.023438 C 1094.542969 618.496094 1094.421875 621.675781 1094.171875 624.632812 C 1093.632812 633.726562 1097.292969 642.84375 1103.613281 649.34375 C 1110.980469 657.296875 1121.78125 661.394531 1132.472656 661.964844 C 1144.3125 662.695312 1156.972656 661.003906 1166.800781 653.875 C 1171.164062 650.625 1173.253906 645.296875 1173.921875 640.054688 C 1173.875 635.765625 1173.324219 631.316406 1171.480469 627.414062 C 1157.84375 627.085938 1143.851562 626.226562 1131.113281 620.894531 C 1122.441406 617.445312 1114.851562 611.433594 1109.550781 603.765625 C 1103.574219 605.515625 1098.8125 610.382812 1096.402344 616.023438 M 1123.613281 567.675781 C 1117.664062 573.316406 1114.441406 582.015625 1116.023438 590.117188 C 1117.132812 596.445312 1120.203125 602.574219 1125.300781 606.625 C 1132.203125 612.226562 1141.042969 614.882812 1149.730469 616.125 C 1162.152344 617.457031 1175.421875 617.804688 1186.851562 611.964844 C 1192.851562 609.144531 1197.933594 604.066406 1199.753906 597.574219 L 1200.183594 597.496094 C 1201.453125 592.207031 1202.230469 586.632812 1200.863281 581.296875 C 1199.253906 574.066406 1193.890625 568.144531 1187.472656 564.714844 C 1167.300781 572.59375 1144.300781 575.085938 1123.613281 567.675781 M 1061.714844 401.265625 C 1072.523438 397.835938 1084.222656 397.234375 1095.230469 400.085938 C 1105.574219 402.867188 1114.714844 410.214844 1119.125 420.035156 C 1120.761719 423.445312 1121.640625 427.15625 1122.902344 430.714844 C 1122.402344 434.085938 1123.171875 437.425781 1123.992188 440.683594 C 1123.042969 443.894531 1123.8125 447.265625 1123.183594 450.515625 C 1120.933594 462.835938 1117.28125 474.894531 1112.382812 486.425781 C 1111.050781 490.003906 1109.152344 494.105469 1111.113281 497.84375 C 1112.183594 500.886719 1115.902344 499.617188 1118.230469 499.207031 C 1126.691406 496.355469 1135.582031 495.285156 1144.3125 493.546875 C 1147.171875 492.816406 1150.414062 494.476562 1153.011719 492.753906 C 1153.375 492.90625 1154.082031 493.214844 1154.433594 493.367188 C 1163.082031 492.984375 1171.742188 494.515625 1180.042969 496.875 C 1188.023438 499.285156 1194.992188 504.144531 1200.753906 510.074219 C 1206.574219 517.457031 1210.714844 527.003906 1209.183594 536.554688 C 1208.601562 545.59375 1204.691406 554.625 1197.640625 560.457031 C 1203.941406 565.90625 1207.480469 573.746094 1209.683594 581.625 C 1211.972656 596.324219 1206.03125 612.355469 1193.902344 621.214844 C 1189.351562 623.914062 1184.8125 627.085938 1179.464844 627.882812 C 1179.730469 628.273438 1180.28125 629.035156 1180.550781 629.425781 C 1180.640625 635.117188 1182.023438 640.945312 1180.261719 646.523438 C 1178.722656 654.464844 1173.625 661.617188 1166.472656 665.457031 C 1152.171875 673.046875 1135.050781 673.15625 1119.574219 669.496094 C 1114.472656 668.476562 1109.632812 665.945312 1104.300781 666.355469 C 1093.53125 666.546875 1082.972656 662.90625 1074.171875 656.804688 C 1065.59375 648.476562 1057.640625 639.34375 1051.640625 628.945312 C 971.773438 638.316406 891.292969 639.964844 810.953125 641.265625 C 810.800781 638.324219 810.664062 635.382812 810.550781 632.457031 C 843.230469 631.476562 875.941406 630.894531 908.625 629.875 C 952.273438 628.226562 995.921875 625.496094 1039.363281 620.707031 C 1044.890625 619.964844 1050.613281 619.867188 1055.84375 617.683594 L 1056.101562 617.925781 C 1058.8125 629.207031 1066.800781 638.175781 1075.324219 645.617188 C 1080.683594 650.515625 1087.625 653.335938 1094.664062 654.753906 C 1090.253906 648.164062 1086.714844 640.816406 1086.125 632.796875 C 1085.890625 625.496094 1086.390625 617.316406 1091.53125 611.605469 C 1095.691406 606.675781 1101.964844 604.496094 1107.875 602.484375 C 1106.933594 599.335938 1105.992188 596.183594 1105.011719 593.046875 C 1097.691406 600.605469 1088.363281 608.132812 1077.171875 607.246094 C 1082.34375 603.816406 1087.902344 600.875 1092.433594 596.554688 C 1102.542969 587.367188 1109.742188 574.335938 1110.363281 560.566406 C 1107.542969 554.457031 1101.941406 549.566406 1101.222656 542.515625 C 1100.402344 534.785156 1100.625 525.546875 1106.800781 519.914062 C 1115.402344 511.976562 1127.703125 509.285156 1139.113281 509.714844 C 1136.03125 511.585938 1132.382812 511.957031 1129.074219 513.226562 C 1122.992188 515.585938 1117.050781 519.316406 1113.953125 525.246094 C 1110.851562 531.875 1110.632812 539.785156 1113.421875 546.554688 C 1116.375 553.40625 1123.222656 557.605469 1130.0625 559.84375 C 1139.480469 562.765625 1149.503906 563.457031 1159.3125 562.855469 C 1168.664062 561.90625 1178.492188 560.886719 1186.613281 555.707031 C 1191.382812 552.605469 1195.402344 548.414062 1198.742188 543.835938 C 1201.78125 539.65625 1201.972656 534.207031 1201.390625 529.253906 C 1200.414062 521.136719 1196.183594 513.214844 1189.292969 508.644531 C 1181.742188 503.386719 1172.492188 501.546875 1163.511719 500.574219 C 1150.652344 499.726562 1138.09375 503.285156 1125.402344 504.695312 C 1119.261719 505.546875 1113.113281 508.535156 1106.875 506.785156 C 1102.683594 504.835938 1101.632812 499.683594 1102.023438 495.503906 C 1103.101562 483.433594 1108.914062 472.546875 1111.902344 460.945312 C 1114.011719 452.996094 1113.921875 444.574219 1112.34375 436.554688 C 1110.652344 428.117188 1106.074219 420.023438 1098.773438 415.253906 C 1090.300781 409.386719 1079.433594 408.09375 1069.472656 409.867188 C 1063.59375 411.296875 1058.375 415.796875 1056.511719 421.605469 C 1055.324219 427.136719 1057.140625 432.746094 1059.0625 437.894531 C 1063.964844 450.59375 1067.824219 463.875 1068.402344 477.554688 C 1068.664062 486.773438 1066.503906 496.066406 1061.941406 504.105469 C 1057.132812 512.707031 1051.800781 521.09375 1048.332031 530.375 C 1046.390625 535.855469 1042.84375 540.765625 1042.03125 546.636719 C 1041.183594 552.535156 1041.050781 558.515625 1040.902344 564.464844 C 1040.691406 575.355469 1044.351562 585.765625 1045.773438 596.457031 C 1044.902344 595.824219 1044.050781 595.207031 1043.214844 594.585938 C 991.300781 602.855469 938.941406 607.933594 886.480469 611.105469 C 860.941406 613.125 835.34375 614.175781 809.773438 615.65625 C 809.523438 613.34375 808.761719 611.132812 807.640625 609.117188 C 807.5625 607.335938 807.574219 605.566406 807.59375 603.804688 C 808.183594 604.867188 808.652344 606.015625 809.332031 607.054688 C 823.332031 605.675781 837.402344 605.234375 851.433594 604.253906 C 881.074219 602.734375 910.652344 600.195312 940.242188 597.835938 C 973.242188 594.546875 1006.261719 591.023438 1039.003906 585.605469 C 1035.613281 576.855469 1031.652344 568.066406 1031.390625 558.535156 C 1030.933594 546.40625 1034.082031 534.054688 1040.574219 523.753906 C 1043.421875 518.164062 1047.34375 513.246094 1050.980469 508.164062 C 1055.523438 500.496094 1060.691406 492.636719 1061.53125 483.523438 C 1062.222656 472.835938 1060.023438 462.125 1055.582031 452.394531 C 1052.714844 446.105469 1050.414062 439.574219 1048.082031 433.074219 C 1047.941406 426.945312 1046.421875 420.617188 1048.550781 414.636719 C 1050.351562 408.304688 1055.933594 403.855469 1061.714844 401.265625 "/>
</g>
<path style=" stroke:none;fill-rule:nonzero;fill:rgb(56.098938%,1.599121%,1.599121%);fill-opacity:1;" d="M 469.164062 461.285156 C 456.441406 473.015625 447.882812 488.875 443.640625 505.535156 C 445.492188 514.105469 447.5625 522.675781 448.183594 531.464844 C 449.582031 544.503906 448.222656 557.613281 446.292969 570.503906 C 451.703125 585.726562 461.984375 599.554688 475.960938 607.894531 C 489.164062 615.664062 506.023438 617.214844 520.222656 611.265625 C 532.8125 606.015625 543.84375 596.824219 551.152344 585.316406 C 561.832031 570.933594 566.84375 553.003906 568.664062 535.375 C 570.492188 513.085938 565.972656 489.585938 552.792969 471.175781 L 552.441406 470.976562 C 542.484375 455.796875 524.882812 445.074219 506.453125 445.425781 C 492.53125 445.484375 479.292969 452.015625 469.164062 461.285156 M 335.363281 446.34375 C 323.921875 453.496094 315.402344 464.523438 309.582031 476.554688 C 300.082031 496.496094 297.523438 519.246094 300.140625 541.035156 C 302.324219 559.613281 308.242188 577.875 318.140625 593.796875 C 327.683594 608.375 340.613281 621.574219 357.203125 627.796875 C 371.242188 633.34375 387.671875 632.253906 400.890625 624.984375 C 412.953125 618.304688 422.292969 607.457031 428.640625 595.335938 C 434.84375 583.824219 438.152344 570.957031 439.722656 558.035156 C 442.203125 536.925781 439.164062 515.304688 431.503906 495.515625 C 425.074219 478.585938 414.78125 462.804688 400.460938 451.546875 C 391.882812 444.957031 381.8125 439.664062 370.933594 438.523438 C 358.640625 436.40625 345.773438 439.644531 335.363281 446.34375 M 326.773438 443.835938 C 338.78125 434.753906 354.402344 430.515625 369.351562 432.324219 C 382.34375 433.566406 394.664062 438.964844 405.0625 446.734375 C 420.222656 458.136719 431.84375 473.925781 439.09375 491.394531 C 442.101562 486.773438 443.800781 481.445312 446.984375 476.933594 C 454.984375 464.023438 466.453125 453.066406 480.164062 446.394531 C 492.832031 440.09375 507.703125 438.515625 521.492188 441.546875 C 537.710938 445.515625 551.453125 456.585938 560.84375 470.15625 C 571.300781 484.796875 576.222656 502.644531 577.722656 520.40625 C 577.800781 534.566406 577.863281 549.273438 572.332031 562.574219 C 567.28125 577.066406 559.621094 590.914062 548.421875 601.554688 C 534.332031 615.765625 513.582031 623.707031 493.59375 621.066406 C 480.234375 619.644531 468.101562 612.523438 458.460938 603.464844 C 452.441406 597.796875 447.773438 590.945312 443.363281 584.015625 C 437.960938 597.375 430.984375 610.523438 420.292969 620.414062 C 411.34375 629.226562 399.753906 635.484375 387.34375 637.625 C 373.734375 640.054688 359.460938 637.925781 347.113281 631.746094 C 340.734375 628.386719 334.042969 625.183594 328.953125 619.945312 C 323.824219 614.726562 318.433594 609.707031 314.152344 603.734375 C 307.171875 594.433594 302.203125 583.84375 297.742188 573.164062 C 295.503906 566.023438 292.414062 559.074219 291.652344 551.566406 C 290.871094 543.765625 289.460938 535.984375 289.792969 528.113281 C 289.582031 509.105469 293.382812 489.90625 302.113281 472.933594 C 307.941406 461.503906 316.371094 451.386719 326.773438 443.835938 "/>
<path style=" stroke:none;fill-rule:nonzero;fill:rgb(56.098938%,1.599121%,1.599121%);fill-opacity:1;" d="M 205.773438 592.824219 C 218.933594 585.476562 234.582031 587.59375 248.730469 590.246094 C 250.011719 592.246094 251.171875 594.324219 251.730469 596.664062 C 249.691406 596.914062 247.652344 597.144531 245.613281 597.214844 C 241.121094 596.675781 236.613281 596.265625 232.082031 596.484375 C 231.890625 603.40625 232.824219 610.316406 233.953125 617.136719 C 235.824219 629.296875 240.242188 640.824219 244.742188 652.207031 C 248.472656 661.023438 252.871094 669.515625 257.980469 677.613281 C 261.921875 684.574219 266.230469 691.375 271.480469 697.445312 C 277.710938 703.90625 284.101562 710.234375 291.082031 715.894531 C 299.164062 722.125 309.183594 724.707031 318.511719 728.445312 C 329.84375 733.054688 341.53125 736.726562 353.273438 740.144531 C 371.652344 745.105469 390.664062 746.746094 409.523438 748.855469 C 424.453125 749.886719 439.503906 750.433594 454.402344 748.566406 C 466.5625 747.554688 478.371094 744.324219 490.433594 742.605469 C 497.472656 741.066406 504.710938 740.683594 511.664062 738.765625 C 519.171875 736.734375 526.863281 735.554688 534.390625 733.59375 C 551.390625 730.296875 568.011719 724.625 583.210938 716.265625 C 593.253906 710.984375 602.203125 704.015625 611.582031 697.695312 C 629.800781 684.085938 643.574219 665.363281 654.292969 645.503906 C 662.082031 631.386719 667.042969 615.976562 674.132812 601.523438 C 673.933594 604.515625 673.753906 607.503906 673.53125 610.503906 C 673.261719 617.886719 669.890625 624.605469 667.492188 631.457031 C 662.390625 645.933594 656.414062 660.234375 648.003906 673.136719 C 644.011719 679.023438 638.671875 683.796875 634.152344 689.246094 C 618.460938 705.164062 599.953125 718.226562 579.742188 727.773438 C 572.300781 732.15625 563.691406 733.554688 555.832031 736.894531 C 552.8125 738.144531 549.78125 739.40625 546.652344 740.363281 C 525.210938 745.433594 503.683594 750.285156 481.890625 753.625 C 478.460938 754.136719 475.09375 754.984375 471.640625 755.34375 C 456.722656 757.707031 441.632812 759.714844 426.492188 758.925781 C 419.183594 758.574219 411.902344 757.835938 404.621094 757.136719 L 404.351562 757.976562 C 401.164062 757.273438 397.921875 756.863281 394.710938 756.265625 C 386.664062 754.707031 378.414062 754.816406 370.273438 754.09375 C 357.460938 752.285156 345.082031 748.40625 332.871094 744.195312 C 329.511719 743.003906 325.960938 742.496094 322.5625 741.476562 C 313.722656 738.035156 305.03125 734.246094 296.3125 730.523438 C 289.582031 727.546875 284.082031 722.546875 278.363281 718.054688 C 284.460938 734.445312 293.890625 749.335938 304.523438 763.144531 C 308.953125 769.023438 313.53125 774.796875 318.390625 780.335938 C 321.203125 783.605469 324.472656 786.457031 328.050781 788.855469 C 328.851562 791.976562 331.351562 794.15625 333.460938 796.414062 C 345.8125 809.183594 360.710938 819.105469 375.972656 828.035156 C 380.492188 830.613281 384.890625 833.476562 389.703125 835.523438 C 393.121094 837.234375 396.414062 839.246094 400.132812 840.316406 C 410.28125 845.605469 421.003906 850.105469 432.3125 852.226562 C 443.84375 854.59375 455.53125 858.09375 467.421875 856.503906 C 473.230469 855.753906 479.140625 855.863281 484.871094 854.503906 C 488.53125 853.984375 492.273438 853.566406 495.683594 851.984375 L 495.992188 853.003906 C 505.480469 850.414062 514.523438 846.476562 523.3125 842.105469 C 529.761719 838.835938 536.613281 836.09375 542.152344 831.316406 C 548.824219 825.675781 554.921875 819.394531 561.742188 813.925781 C 564.574219 812.046875 567.59375 810.433594 570.324219 808.394531 C 575.792969 804.183594 580.390625 798.214844 587.421875 796.566406 C 590.300781 795.636719 594.332031 796.285156 595.53125 799.445312 C 599.140625 808.835938 601.53125 819.625 597.34375 829.265625 C 596.613281 829.296875 595.132812 829.363281 594.402344 829.394531 C 591.273438 821.613281 590.59375 813.136719 589.542969 804.894531 C 582.183594 809.246094 576.222656 815.496094 569.882812 821.136719 C 563.164062 826.996094 556.902344 833.363281 550.023438 839.023438 C 541.113281 846.214844 530.601562 850.925781 520.132812 855.355469 C 515.503906 857.40625 510.914062 859.65625 505.960938 860.863281 C 495.28125 863.484375 484.421875 865.746094 473.382812 865.875 C 464.722656 865.976562 455.953125 867.457031 447.371094 865.65625 C 436.78125 863.355469 425.921875 862.046875 415.730469 858.164062 C 404.480469 853.59375 393.164062 849.105469 382.324219 843.605469 C 364.421875 832.015625 344.824219 822.605469 329.574219 807.375 C 321.371094 799.214844 314.253906 790.085938 306.59375 781.457031 C 289.023438 759.914062 273.203125 736.054688 265.953125 708.914062 C 263.171875 698.886719 254.972656 691.875 249.703125 683.253906 C 244.613281 673.984375 240.550781 664.195312 236.523438 654.425781 C 233.003906 644.804688 228.832031 635.324219 227.121094 625.15625 C 225.050781 615.464844 225.242188 605.515625 224.3125 595.695312 C 215.0625 595.804688 207.550781 602.175781 198.601562 603.445312 C 197.832031 598.585938 202.183594 595.207031 205.773438 592.824219 "/>
<path style=" stroke:none;fill-rule:nonzero;fill:rgb(56.098938%,1.599121%,1.599121%);fill-opacity:1;" d="M 67.78125 691.933594 C 73.941406 685.132812 78.824219 677.246094 85.3125 670.753906 C 86.363281 674.542969 87.523438 678.324219 88.601562 682.117188 C 84.132812 687.207031 79.644531 692.277344 75.222656 697.40625 C 66.3125 707.945312 59.53125 720.144531 50.234375 730.382812 C 38.394531 743.457031 27.941406 757.765625 18.734375 772.792969 C 15.152344 778.875 10.164062 785.105469 10.8125 792.585938 C 11.113281 796.375 14.722656 798.527344 17.644531 800.292969 C 29.53125 806.984375 43.234375 808.90625 56.421875 811.464844 C 73.34375 814.476562 90.402344 810.164062 107.402344 811.207031 C 119.800781 812.027344 132.261719 812.074219 144.671875 811.445312 C 147.78125 815.804688 151.074219 820.035156 153.953125 824.554688 C 151.433594 831.984375 151.421875 840.445312 154.082031 847.824219 C 158.074219 852.554688 164.601562 853.976562 169.011719 858.265625 C 166.191406 860.054688 163.023438 861.957031 159.511719 861.183594 C 152.492188 859.714844 146.421875 855.566406 139.671875 853.277344 C 128.382812 849.207031 115.613281 846.726562 104.011719 851.015625 C 94.671875 854.214844 87.753906 862.355469 84.324219 871.414062 C 82.894531 875.214844 82.921875 879.984375 85.761719 883.164062 C 88.382812 885.625 92.023438 886.542969 95.394531 887.496094 C 108.5625 890.792969 122.253906 888.753906 135.402344 886.484375 C 142.921875 885.175781 149.472656 880.875 156.824219 879.042969 C 160.421875 878.105469 163.222656 881.066406 165.824219 883.042969 C 151.183594 892.164062 132.902344 895.882812 121.292969 909.445312 C 115.351562 916.535156 109.101562 925.335938 111.011719 935.117188 C 112.261719 940.617188 115.453125 946.84375 121.453125 948.164062 C 131.351562 950.085938 142.253906 949.574219 151.101562 944.304688 C 157.863281 940.476562 162.0625 933.695312 166.460938 927.542969 C 172.601562 918.476562 179.152344 908.855469 189.433594 904.09375 C 189.234375 908.042969 188.871094 912.253906 186.441406 915.554688 C 179.332031 925.574219 170.894531 934.976562 166.414062 946.574219 C 164.582031 955.054688 164.550781 965.226562 170.613281 972.117188 C 173.753906 974.574219 177.683594 977.246094 181.863281 975.945312 C 190.992188 973.035156 197.300781 964.882812 201.394531 956.605469 C 210.351562 936.324219 220.34375 915.894531 222.863281 893.59375 C 227.574219 895.074219 231.113281 898.683594 235.234375 901.246094 C 234.472656 906.382812 233.921875 911.683594 231.53125 916.382812 C 229.3125 920.816406 227.621094 925.464844 225.871094 930.09375 C 222.882812 935.734375 219.734375 941.285156 216.832031 946.976562 C 213.191406 953.335938 212.34375 960.996094 207.984375 966.996094 C 204.722656 972.585938 199.832031 976.957031 194.960938 981.125 C 190.402344 984.175781 185.332031 987.707031 179.53125 986.914062 C 164.191406 985.554688 151.28125 972.195312 149.78125 956.964844 C 143.683594 958.125 137.664062 960.175781 131.371094 959.933594 C 123.003906 960.15625 114.78125 956.894531 108.363281 951.632812 C 102.03125 945.355469 97.710938 936.066406 99.882812 927.074219 C 101.433594 916.375 108.644531 907.804688 115.542969 899.957031 C 103.78125 899.214844 91.183594 898.726562 81.042969 891.996094 C 74.601562 888.625 71.132812 880.714844 72.664062 873.664062 C 74.144531 860.695312 83.28125 849.445312 94.824219 843.792969 C 103.332031 839.925781 112.984375 837.503906 122.324219 839.367188 C 129.132812 840.566406 135.824219 842.433594 142.59375 843.914062 C 141.292969 836.625 142.472656 829.285156 143.34375 822.035156 C 137.691406 822.066406 132.042969 822.433594 126.394531 822.074219 C 118.382812 821.734375 110.453125 820.207031 102.414062 820.304688 C 93.261719 820.457031 84.09375 820.183594 74.972656 821.132812 C 69.324219 821.125 63.683594 820.964844 58.042969 821.09375 C 41.0625 819.085938 24.203125 814.816406 8.832031 807.226562 C 4.203125 804.914062 0.210938 800.777344 0.0429688 795.335938 C -0.316406 785.914062 1.574219 775.996094 7.011719 768.144531 C 15.882812 759.144531 22.101562 747.976562 30.324219 738.433594 C 37.402344 731.707031 42.5625 723.367188 48.773438 715.914062 C 54.753906 707.644531 61.523438 699.984375 67.78125 691.933594 "/>
<path style=" stroke:none;fill-rule:nonzero;fill:rgb(56.098938%,1.599121%,1.599121%);fill-opacity:1;" d="M 93.832031 698.355469 C 95.273438 702.664062 96.753906 706.964844 98.234375 711.253906 C 81.253906 732.484375 65.882812 755.027344 52.523438 778.695312 C 64.8125 778.726562 77.234375 780.792969 89.441406 778.476562 C 94.761719 777.835938 100.140625 777.996094 105.460938 777.324219 C 111.5625 776.566406 117.792969 777.804688 123.824219 776.34375 C 125.550781 779.765625 127.121094 783.265625 128.960938 786.644531 C 123.921875 786.816406 118.871094 786.957031 113.832031 787.195312 C 86.953125 788.804688 59.972656 788.734375 33.09375 787.183594 C 35.421875 780.433594 40.933594 775.542969 44.253906 769.324219 C 49.441406 760.027344 55.992188 751.585938 61.253906 742.335938 C 70.402344 726.476562 82.832031 712.90625 93.832031 698.355469 "/>
<g clip-path="url(#clip2)" clip-rule="nonzero">
<path style=" stroke:none;fill-rule:nonzero;fill:rgb(56.098938%,1.599121%,1.599121%);fill-opacity:1;" d="M 491.082031 958.304688 C 495.550781 957.425781 500.003906 956.496094 504.453125 955.535156 C 503.78125 955.714844 502.453125 956.085938 501.78125 956.265625 C 502.582031 971.355469 501.941406 986.464844 502.742188 1001.566406 C 502.414062 1014.566406 503.390625 1027.566406 503.113281 1040.574219 C 503.152344 1052.40625 504.003906 1064.234375 503.332031 1076.066406 C 510.941406 1071.445312 519.753906 1069.117188 528.011719 1065.867188 C 542.453125 1061.246094 557.140625 1057.394531 572.261719 1055.945312 C 587.933594 1054.566406 603.734375 1054.734375 619.382812 1056.054688 C 625.382812 1057.203125 631.542969 1056.824219 637.53125 1058.074219 C 661.171875 1061.324219 683.09375 1071.253906 704.53125 1081.203125 C 713.710938 1086.554688 722.671875 1092.375 730.722656 1099.355469 C 740.242188 1108.304688 750.351562 1118.703125 751.875 1132.324219 C 749.875 1136.953125 745.203125 1139.695312 740.453125 1140.734375 C 736.09375 1140.976562 731.710938 1140.695312 727.375 1141.253906 C 714.375 1140.6875 701.375 1141.664062 688.375 1141.375 C 662.734375 1140.554688 637.082031 1141.015625 611.441406 1140.65625 C 583.8125 1140.132812 556.191406 1140.132812 528.5625 1140.003906 C 512.253906 1139.304688 495.933594 1139.453125 479.621094 1139.195312 C 472.402344 1139.003906 465.183594 1138.734375 457.953125 1138.914062 C 457.421875 1126.125 458.324219 1113.335938 458.800781 1100.566406 C 458.78125 1092.542969 458.113281 1084.515625 458.902344 1076.515625 C 459.011719 1061.164062 460.292969 1045.875 460.933594 1030.554688 C 461.832031 1007.726562 460.382812 984.867188 461.414062 962.042969 C 465.3125 961.726562 469.210938 961.335938 473.101562 960.867188 C 473.050781 968.367188 472.914062 975.875 472.613281 983.375 C 471.5625 1017.085938 470.710938 1050.792969 469.664062 1084.503906 C 469.523438 1090.9375 468.28125 1097.316406 468.710938 1103.753906 C 469.171875 1111.4375 469.042969 1119.125 468.832031 1126.804688 C 482.351562 1127.515625 495.890625 1126.65625 509.402344 1127.464844 C 563.074219 1127.40625 616.742188 1127.566406 670.414062 1128.066406 C 683.421875 1128.214844 696.441406 1128.453125 709.453125 1128.867188 C 714.441406 1128.746094 719.503906 1129.304688 724.453125 1128.464844 C 727.78125 1127.855469 730.492188 1125.726562 732.933594 1123.515625 C 730.832031 1117.65625 727.3125 1112.425781 722.800781 1108.15625 C 715.125 1100.574219 706.101562 1094.414062 696.433594 1089.65625 C 689.734375 1085.382812 682.023438 1083.292969 674.773438 1080.203125 C 663.203125 1075.945312 651.523438 1071.632812 639.332031 1069.554688 C 625.722656 1068.203125 612.140625 1065.925781 598.414062 1066.265625 C 584.074219 1065.984375 569.902344 1068.476562 555.882812 1071.226562 C 547.550781 1072.953125 539.722656 1076.40625 531.59375 1078.835938 C 522.183594 1082.394531 512.902344 1086.355469 504.011719 1091.09375 C 499.84375 1093.265625 496.171875 1096.792969 491.210938 1096.9375 C 491.632812 1058.867188 490.890625 1020.785156 491.023438 982.714844 C 491.164062 974.574219 490.753906 966.4375 491.082031 958.304688 "/>
</g>
<g clip-path="url(#clip3)" clip-rule="nonzero">
<path style=" stroke:none;fill-rule:nonzero;fill:rgb(56.098938%,1.599121%,1.599121%);fill-opacity:1;" d="M 394.390625 960.84375 C 398.011719 961.277344 401.632812 961.65625 405.253906 962.074219 C 405.042969 969.4375 404.890625 976.792969 404.914062 984.15625 C 404.992188 1013.617188 404.691406 1043.066406 404.542969 1072.515625 C 404.652344 1080.445312 404.902344 1088.382812 404.683594 1096.316406 C 402.851562 1095.925781 400.972656 1095.632812 399.371094 1094.632812 C 388.761719 1087.914062 377.132812 1083.035156 365.472656 1078.503906 C 355.402344 1075.503906 345.710938 1071.09375 335.183594 1069.855469 C 312.632812 1064.792969 289.191406 1064.804688 266.390625 1068.144531 C 251.871094 1068.777344 238.03125 1073.746094 224.503906 1078.632812 C 206.8125 1084.726562 189.484375 1092.9375 175.492188 1105.59375 C 170.59375 1110.144531 165.824219 1115.324219 163.742188 1121.824219 C 162.691406 1124.234375 165.132812 1125.976562 166.941406 1127.015625 C 172.8125 1130.566406 179.933594 1128.925781 186.402344 1129.277344 C 215.402344 1128.34375 244.421875 1128.394531 273.433594 1128.066406 C 297.113281 1128.226562 320.773438 1127.703125 344.453125 1127.867188 C 359.792969 1127.804688 375.132812 1127.984375 390.484375 1127.785156 C 402.460938 1127.015625 414.492188 1127.882812 426.472656 1127.265625 C 428.550781 1127.394531 427.652344 1124.746094 427.871094 1123.542969 C 427.261719 1115.195312 428.210938 1106.882812 428.242188 1098.554688 C 426.53125 1075.617188 426.472656 1052.59375 425.652344 1029.617188 C 425.273438 1014.484375 424.710938 999.355469 424.390625 984.226562 C 424.34375 977.195312 424.023438 970.175781 424.023438 963.15625 C 427.703125 963.335938 431.382812 963.335938 435.0625 963.195312 C 435.34375 979.964844 435.460938 996.734375 435.542969 1013.515625 C 435.042969 1040.894531 438.433594 1068.175781 437.703125 1095.542969 C 437.34375 1102.882812 438.332031 1110.1875 438.210938 1117.535156 C 438.242188 1124.484375 440.121094 1131.703125 438.492188 1138.515625 C 435.613281 1139.335938 432.433594 1138.65625 429.441406 1138.875 C 417.792969 1139.246094 406.140625 1139.285156 394.492188 1139.464844 C 382.484375 1139.214844 370.492188 1140.214844 358.484375 1140.054688 C 317.472656 1139.953125 276.472656 1141.054688 235.460938 1140.835938 C 223.113281 1140.925781 210.761719 1141.453125 198.414062 1141.355469 C 188.753906 1141.503906 179.101562 1140.617188 169.441406 1141.277344 C 163.101562 1140.164062 156.082031 1142.316406 150.363281 1138.566406 C 147.28125 1137.054688 144.542969 1134.15625 144.972656 1130.464844 C 145.703125 1122.695312 150.511719 1116.226562 155.113281 1110.234375 C 163.761719 1100.003906 174.472656 1091.6875 185.953125 1084.855469 C 191.371094 1080.804688 197.773438 1078.484375 203.914062 1075.804688 C 225.421875 1065.675781 248.484375 1057.792969 272.414062 1056.734375 C 285.3125 1054.714844 298.414062 1055.09375 311.433594 1055.054688 C 320.511719 1055.375 329.511719 1056.585938 338.511719 1057.734375 C 338.914062 1058.015625 339.703125 1058.566406 340.09375 1058.84375 C 341.984375 1058.894531 343.882812 1058.984375 345.773438 1059.132812 C 348.390625 1060.785156 351.621094 1060.804688 354.523438 1061.753906 C 359.164062 1062.792969 363.582031 1064.59375 368.191406 1065.746094 C 376.59375 1068.925781 385.164062 1071.734375 393.203125 1075.785156 C 392.433594 1061.367188 393.574219 1046.953125 393.234375 1032.535156 C 393.800781 1008.632812 394.042969 984.746094 394.390625 960.84375 "/>
</g>
<path style=" stroke:none;fill-rule:nonzero;fill:rgb(90.59906%,15.299988%,15.299988%);fill-opacity:1;" d="M 1056.511719 421.605469 C 1058.371094 415.792969 1063.59375 411.292969 1069.472656 409.863281 C 1079.433594 408.09375 1090.300781 409.386719 1098.773438 415.253906 C 1106.074219 420.023438 1110.652344 428.113281 1112.34375 436.554688 C 1113.921875 444.574219 1114.011719 452.996094 1111.902344 460.945312 C 1108.914062 472.542969 1103.101562 483.433594 1102.023438 495.503906 C 1101.632812 499.683594 1102.683594 504.835938 1106.871094 506.785156 C 1113.113281 508.535156 1119.261719 505.542969 1125.402344 504.695312 C 1138.09375 503.285156 1150.652344 499.726562 1163.511719 500.574219 C 1172.492188 501.542969 1181.742188 503.386719 1189.292969 508.644531 C 1196.183594 513.214844 1200.414062 521.136719 1201.394531 529.253906 C 1198.28125 535.003906 1193.613281 539.855469 1187.753906 542.816406 C 1175.78125 549.265625 1161.742188 549.683594 1148.492188 548.625 C 1138.671875 547.613281 1128.773438 544.285156 1121.261719 537.726562 C 1117.460938 534.503906 1115.53125 529.816406 1113.953125 525.246094 C 1117.050781 519.316406 1122.992188 515.585938 1129.074219 513.226562 C 1132.382812 511.953125 1136.03125 511.585938 1139.113281 509.714844 C 1127.703125 509.285156 1115.402344 511.976562 1106.800781 519.914062 C 1100.621094 525.542969 1100.402344 534.785156 1101.222656 542.515625 C 1101.941406 549.566406 1107.542969 554.453125 1110.363281 560.566406 C 1109.742188 574.335938 1102.542969 587.363281 1092.433594 596.554688 C 1087.902344 600.875 1082.34375 603.816406 1077.171875 607.246094 C 1088.363281 608.136719 1097.691406 600.605469 1105.011719 593.042969 C 1105.992188 596.1875 1106.933594 599.335938 1107.871094 602.484375 C 1101.960938 604.496094 1095.691406 606.675781 1091.53125 611.605469 C 1086.394531 617.316406 1085.894531 625.496094 1086.121094 632.792969 C 1075.394531 629.4375 1065.683594 623.6875 1056.101562 617.925781 L 1055.84375 617.6875 C 1052.074219 614.855469 1048.8125 609.523438 1043.414062 610.695312 C 994.460938 614.90625 945.441406 618.34375 896.414062 621.375 C 867.703125 623.023438 838.992188 624.855469 810.253906 625.824219 C 810.0625 622.4375 810.003906 619.042969 809.773438 615.65625 C 835.34375 614.175781 860.941406 613.125 886.484375 611.105469 C 938.941406 607.9375 991.300781 602.855469 1043.210938 594.585938 C 1044.050781 595.203125 1044.902344 595.824219 1045.773438 596.453125 C 1044.351562 585.765625 1040.691406 575.355469 1040.902344 564.464844 C 1041.050781 558.515625 1041.183594 552.535156 1042.03125 546.636719 C 1042.84375 540.765625 1046.394531 535.855469 1048.332031 530.375 C 1051.800781 521.09375 1057.132812 512.703125 1061.941406 504.105469 C 1066.503906 496.066406 1068.664062 486.773438 1068.402344 477.554688 C 1067.824219 463.875 1063.960938 450.59375 1059.0625 437.894531 C 1057.144531 432.746094 1055.324219 427.136719 1056.511719 421.605469 "/>
<path style=" stroke:none;fill-rule:nonzero;fill:rgb(90.59906%,15.299988%,15.299988%);fill-opacity:1;" d="M 1123.613281 567.675781 C 1144.300781 575.085938 1167.300781 572.59375 1187.472656 564.714844 C 1193.890625 568.144531 1199.253906 574.066406 1200.863281 581.296875 C 1202.230469 586.632812 1201.453125 592.207031 1200.183594 597.496094 L 1199.753906 597.574219 C 1171.953125 603.605469 1142.140625 601.785156 1116.023438 590.113281 C 1114.441406 582.015625 1117.664062 573.316406 1123.613281 567.675781 "/>
<path style=" stroke:none;fill-rule:nonzero;fill:rgb(90.59906%,15.299988%,15.299988%);fill-opacity:1;" d="M 1096.402344 616.023438 C 1098.8125 610.382812 1103.574219 605.515625 1109.550781 603.765625 C 1114.851562 611.433594 1122.441406 617.445312 1131.113281 620.894531 C 1143.851562 626.226562 1157.84375 627.085938 1171.480469 627.414062 C 1173.324219 631.316406 1173.875 635.765625 1173.921875 640.054688 C 1168.792969 643.285156 1163.550781 646.59375 1157.523438 647.816406 C 1140.5625 651.675781 1121.722656 648.554688 1107.472656 638.382812 C 1100.324219 633.382812 1095.375 624.945312 1096.402344 616.023438 "/>
<path style=" stroke:none;fill-rule:nonzero;fill:rgb(90.59906%,15.299988%,15.299988%);fill-opacity:1;" d="M 75.222656 697.40625 C 79.644531 692.273438 84.132812 687.207031 88.601562 682.113281 C 90.273438 687.554688 92.09375 692.945312 93.832031 698.355469 C 82.832031 712.90625 70.402344 726.476562 61.253906 742.335938 C 55.992188 751.585938 49.441406 760.023438 44.253906 769.324219 C 40.933594 775.546875 35.421875 780.433594 33.09375 787.183594 C 59.972656 788.734375 86.953125 788.804688 113.832031 787.195312 C 118.871094 786.957031 123.921875 786.816406 128.960938 786.644531 C 133.871094 795.105469 139.101562 803.394531 144.671875 811.445312 C 132.261719 812.074219 119.800781 812.023438 107.402344 811.207031 C 90.402344 810.164062 73.34375 814.476562 56.421875 811.464844 C 43.234375 808.90625 29.53125 806.984375 17.644531 800.296875 C 14.722656 798.523438 11.113281 796.375 10.8125 792.585938 C 10.164062 785.105469 15.152344 778.875 18.734375 772.796875 C 27.941406 757.765625 38.394531 743.457031 50.234375 730.382812 C 59.53125 720.144531 66.3125 707.945312 75.222656 697.40625 "/>
<path style=" stroke:none;fill-rule:nonzero;fill:rgb(90.59906%,15.299988%,15.299988%);fill-opacity:1;" d="M 153.953125 824.554688 C 155.972656 827.015625 158.132812 829.375 160.042969 831.9375 C 171.484375 846.855469 184.453125 860.542969 198.441406 873.074219 C 200.261719 886.15625 201.300781 899.476562 199.164062 912.59375 C 195.734375 934.605469 185.933594 955.855469 170.613281 972.117188 C 164.550781 965.226562 164.582031 955.054688 166.414062 946.574219 C 170.894531 934.976562 179.332031 925.574219 186.441406 915.554688 C 188.871094 912.253906 189.234375 908.042969 189.433594 904.09375 C 179.152344 908.855469 172.601562 918.476562 166.460938 927.542969 C 162.0625 933.695312 157.863281 940.476562 151.101562 944.304688 C 142.253906 949.574219 131.351562 950.085938 121.453125 948.164062 C 115.453125 946.84375 112.261719 940.617188 111.011719 935.117188 C 109.101562 925.335938 115.351562 916.535156 121.292969 909.445312 C 132.902344 895.882812 151.183594 892.164062 165.824219 883.042969 C 163.222656 881.066406 160.421875 878.105469 156.824219 879.042969 C 149.472656 880.875 142.921875 885.175781 135.402344 886.484375 C 122.253906 888.753906 108.5625 890.792969 95.394531 887.496094 C 92.023438 886.542969 88.382812 885.625 85.761719 883.164062 C 82.921875 879.984375 82.894531 875.214844 84.324219 871.414062 C 87.753906 862.355469 94.671875 854.214844 104.011719 851.015625 C 115.613281 846.726562 128.382812 849.203125 139.671875 853.277344 C 146.421875 855.566406 152.492188 859.714844 159.511719 861.1875 C 163.023438 861.953125 166.191406 860.054688 169.011719 858.265625 C 164.601562 853.976562 158.074219 852.554688 154.082031 847.824219 C 151.421875 840.445312 151.433594 831.984375 153.953125 824.554688 "/>
<path style=" stroke:none;fill-rule:nonzero;fill:rgb(90.59906%,15.299988%,15.299988%);fill-opacity:1;" d="M 472.613281 983.375 C 478.753906 983.164062 484.894531 983.144531 491.023438 982.714844 C 490.894531 1020.785156 491.632812 1058.863281 491.210938 1096.9375 C 496.171875 1096.792969 499.84375 1093.265625 504.011719 1091.09375 C 512.902344 1086.355469 522.183594 1082.394531 531.59375 1078.835938 C 539.722656 1076.40625 547.550781 1072.953125 555.882812 1071.226562 C 569.902344 1068.476562 584.074219 1065.984375 598.414062 1066.265625 C 612.144531 1065.925781 625.722656 1068.203125 639.332031 1069.554688 C 651.523438 1071.636719 663.203125 1075.945312 674.773438 1080.203125 C 682.023438 1083.292969 689.734375 1085.386719 696.433594 1089.65625 C 706.101562 1094.414062 715.121094 1100.574219 722.800781 1108.15625 C 727.3125 1112.425781 730.832031 1117.65625 732.933594 1123.515625 C 730.492188 1125.726562 727.78125 1127.855469 724.453125 1128.464844 C 719.503906 1129.304688 714.441406 1128.746094 709.453125 1128.863281 C 696.441406 1128.453125 683.421875 1128.214844 670.414062 1128.066406 C 616.742188 1127.566406 563.074219 1127.40625 509.402344 1127.464844 C 495.894531 1126.65625 482.351562 1127.515625 468.832031 1126.804688 C 469.042969 1119.125 469.171875 1111.4375 468.710938 1103.753906 C 468.28125 1097.316406 469.523438 1090.9375 469.664062 1084.503906 C 470.710938 1050.792969 471.5625 1017.085938 472.613281 983.375 "/>
<path style=" stroke:none;fill-rule:nonzero;fill:rgb(90.59906%,15.299988%,15.299988%);fill-opacity:1;" d="M 404.914062 984.15625 C 411.402344 984.054688 417.902344 984.054688 424.390625 984.226562 C 424.710938 999.355469 425.273438 1014.484375 425.652344 1029.613281 C 426.472656 1052.59375 426.53125 1075.613281 428.242188 1098.554688 C 428.210938 1106.882812 427.261719 1115.195312 427.871094 1123.546875 C 427.652344 1124.746094 428.550781 1127.394531 426.472656 1127.265625 C 414.492188 1127.882812 402.460938 1127.015625 390.484375 1127.785156 C 375.132812 1127.984375 359.792969 1127.804688 344.453125 1127.863281 C 320.773438 1127.707031 297.113281 1128.226562 273.433594 1128.066406 C 244.421875 1128.394531 215.402344 1128.34375 186.402344 1129.273438 C 179.933594 1128.925781 172.8125 1130.566406 166.941406 1127.015625 C 165.132812 1125.976562 162.691406 1124.234375 163.742188 1121.824219 C 165.824219 1115.324219 170.59375 1110.144531 175.492188 1105.59375 C 189.484375 1092.933594 206.8125 1084.726562 224.503906 1078.632812 C 238.03125 1073.746094 251.871094 1068.773438 266.390625 1068.144531 C 289.191406 1064.804688 312.632812 1064.796875 335.183594 1069.855469 C 345.710938 1071.09375 355.402344 1075.503906 365.472656 1078.503906 C 377.132812 1083.035156 388.761719 1087.914062 399.371094 1094.632812 C 400.972656 1095.632812 402.851562 1095.925781 404.683594 1096.316406 C 404.902344 1088.382812 404.652344 1080.445312 404.542969 1072.515625 C 404.691406 1043.066406 404.992188 1013.613281 404.914062 984.15625 "/>
<path style=" stroke:none;fill-rule:nonzero;fill:rgb(99.198914%,92.199707%,63.499451%);fill-opacity:1;" d="M 335.363281 446.34375 C 345.773438 439.644531 358.644531 436.40625 370.933594 438.523438 C 362.203125 441.644531 353.703125 445.394531 345.460938 449.644531 C 335.632812 455.066406 327.550781 463.515625 322.394531 473.476562 C 318.671875 480.984375 314.671875 488.445312 312.5625 496.613281 C 309.613281 506.304688 309.292969 516.484375 309.171875 526.535156 C 308.664062 538.113281 312.691406 549.183594 315.671875 560.207031 C 318.582031 571.683594 323.742188 582.613281 330.851562 592.085938 C 340.882812 604.914062 356.621094 611.933594 372.402344 614.425781 C 385.773438 616.34375 399.734375 613.394531 411.171875 606.234375 C 417.144531 602.765625 421.421875 596.464844 428.644531 595.335938 C 422.292969 607.457031 412.953125 618.304688 400.894531 624.984375 C 387.671875 632.253906 371.242188 633.34375 357.203125 627.796875 C 340.613281 621.574219 327.683594 608.375 318.144531 593.796875 C 308.242188 577.875 302.324219 559.613281 300.144531 541.035156 C 297.523438 519.246094 300.082031 496.496094 309.582031 476.554688 C 315.402344 464.523438 323.921875 453.496094 335.363281 446.34375 "/>
<path style=" stroke:none;fill-rule:nonzero;fill:rgb(99.198914%,92.199707%,63.499451%);fill-opacity:1;" d="M 469.164062 461.285156 C 479.292969 452.015625 492.53125 445.484375 506.453125 445.425781 C 524.882812 445.074219 542.484375 455.796875 552.441406 470.976562 C 550.441406 469.863281 548.523438 468.636719 546.742188 467.207031 C 535.371094 457.726562 520.113281 453.273438 505.414062 454.535156 C 489.542969 455.894531 474.363281 464.164062 464.792969 476.925781 C 456.78125 487.875 450.402344 500.734375 450.3125 514.585938 C 450.433594 522.605469 448.140625 530.566406 449.453125 538.574219 C 450.914062 547.113281 450.640625 555.984375 453.691406 564.214844 C 458.882812 579.945312 471.332031 593.015625 486.734375 599.09375 C 504.953125 606.363281 527.003906 603.796875 542.601562 591.726562 C 545.363281 589.476562 548.164062 587.265625 551.152344 585.316406 C 543.84375 596.824219 532.8125 606.015625 520.222656 611.265625 C 506.023438 617.214844 489.164062 615.664062 475.960938 607.894531 C 461.984375 599.554688 451.703125 585.726562 446.292969 570.503906 C 448.222656 557.613281 449.582031 544.503906 448.183594 531.464844 C 447.5625 522.675781 445.492188 514.105469 443.640625 505.535156 C 447.882812 488.875 456.441406 473.015625 469.164062 461.285156 "/>
<path style=" stroke:none;fill-rule:nonzero;fill:rgb(99.598694%,96.899414%,85.099792%);fill-opacity:1;" d="M 374.414062 528.535156 C 369.261719 529.585938 365.984375 534.457031 364.042969 538.984375 C 360.171875 549.386719 360.824219 561.113281 364.121094 571.574219 C 366.703125 578.535156 370.511719 586.125 377.800781 589.046875 C 382.453125 591.183594 387.601562 587.984375 390.183594 584.125 C 394.792969 577.195312 395.902344 568.515625 395.511719 560.363281 C 394.492188 550.59375 391.824219 540.375 384.921875 533.046875 C 382.273438 530.226562 378.382812 527.945312 374.414062 528.535156 M 370.933594 438.523438 C 381.8125 439.664062 391.882812 444.957031 400.460938 451.546875 C 414.78125 462.804688 425.074219 478.585938 431.503906 495.515625 C 439.164062 515.304688 442.203125 536.925781 439.722656 558.035156 C 438.152344 570.957031 434.84375 583.824219 428.640625 595.335938 C 421.421875 596.464844 417.140625 602.765625 411.171875 606.234375 C 399.734375 613.394531 385.773438 616.34375 372.402344 614.425781 C 356.621094 611.933594 340.882812 604.914062 330.851562 592.085938 C 323.742188 582.613281 318.582031 571.683594 315.671875 560.207031 C 312.691406 549.183594 308.664062 538.113281 309.171875 526.535156 C 309.292969 516.484375 309.613281 506.304688 312.5625 496.613281 C 314.671875 488.445312 318.671875 480.984375 322.390625 473.476562 C 327.550781 463.515625 335.632812 455.066406 345.460938 449.644531 C 353.703125 445.394531 362.203125 441.644531 370.933594 438.523438 "/>
<path style=" stroke:none;fill-rule:nonzero;fill:rgb(99.598694%,96.899414%,85.099792%);fill-opacity:1;" d="M 463.800781 536.042969 C 460.601562 546.265625 460.960938 557.734375 465.261719 567.59375 C 467.472656 572.542969 470.941406 577.644531 476.503906 579.074219 C 481.414062 579.703125 485.703125 575.984375 487.902344 571.914062 C 493.371094 561.875 493.222656 549.613281 489.882812 538.914062 C 487.734375 532.535156 483.8125 525.953125 477.003906 523.835938 C 470.253906 524.042969 465.753906 530.175781 463.800781 536.042969 M 464.792969 476.925781 C 474.363281 464.164062 489.542969 455.894531 505.414062 454.535156 C 520.113281 453.273438 535.371094 457.726562 546.742188 467.203125 C 548.523438 468.636719 550.441406 469.863281 552.441406 470.976562 L 552.792969 471.175781 C 565.972656 489.585938 570.492188 513.085938 568.664062 535.375 C 566.84375 553.003906 561.832031 570.933594 551.152344 585.316406 C 548.164062 587.265625 545.363281 589.476562 542.601562 591.726562 C 527.003906 603.792969 504.953125 606.363281 486.734375 599.09375 C 471.332031 593.015625 458.882812 579.945312 453.691406 564.214844 C 450.644531 555.984375 450.914062 547.113281 449.453125 538.574219 C 448.144531 530.566406 450.433594 522.605469 450.3125 514.585938 C 450.402344 500.734375 456.78125 487.875 464.792969 476.925781 "/>
<path style=" stroke:none;fill-rule:nonzero;fill:rgb(81.999207%,27.099609%,0.39978%);fill-opacity:1;" d="M 577.722656 520.40625 C 578.703125 527.066406 578.191406 533.816406 578.324219 540.523438 C 578.632812 556.664062 574.941406 572.773438 568.34375 587.484375 C 561.914062 600.796875 552.652344 613.144531 540.0625 621.183594 C 526.761719 630.113281 509.761719 633.457031 494.113281 629.894531 C 475.222656 625.457031 458.0625 614.003906 446.871094 598.125 C 445.601562 596.335938 444.414062 594.484375 442.914062 592.882812 C 441.742188 592.984375 441.644531 594.382812 441.152344 595.195312 C 437.433594 604.566406 433.242188 613.984375 426.671875 621.734375 C 417.371094 634.066406 403.960938 643.515625 388.871094 647.164062 C 376.914062 650.414062 363.992188 649.195312 352.5625 644.59375 C 338.082031 639.984375 327.003906 628.804688 317.613281 617.335938 C 307.832031 604.394531 300.074219 589.34375 297.742188 573.164062 C 302.203125 583.84375 307.171875 594.433594 314.152344 603.734375 C 318.433594 609.707031 323.824219 614.726562 328.953125 619.945312 C 334.042969 625.183594 340.734375 628.382812 347.113281 631.746094 C 359.460938 637.925781 373.734375 640.054688 387.34375 637.625 C 399.753906 635.484375 411.34375 629.226562 420.292969 620.414062 C 430.984375 610.523438 437.960938 597.375 443.363281 584.015625 C 447.773438 590.945312 452.441406 597.796875 458.460938 603.464844 C 468.101562 612.523438 480.234375 619.644531 493.59375 621.066406 C 513.582031 623.707031 534.332031 615.765625 548.421875 601.554688 C 559.621094 590.914062 567.28125 577.066406 572.332031 562.574219 C 577.863281 549.273438 577.800781 534.566406 577.722656 520.40625 "/>
<path style=" stroke:none;fill-rule:nonzero;fill:rgb(18.399048%,8.999634%,5.099487%);fill-opacity:1;" d="M 468.792969 539.003906 C 464.652344 542.734375 466.042969 551.15625 471.492188 552.945312 C 476.472656 552.84375 477.640625 546.234375 475.972656 542.515625 C 475.09375 539.726562 471.574219 536.574219 468.792969 539.003906 M 463.800781 536.042969 C 465.753906 530.175781 470.253906 524.042969 477.003906 523.835938 C 483.8125 525.953125 487.730469 532.535156 489.882812 538.914062 C 493.222656 549.613281 493.371094 561.875 487.902344 571.914062 C 485.703125 575.984375 481.414062 579.703125 476.503906 579.074219 C 470.941406 577.644531 467.472656 572.542969 465.261719 567.59375 C 460.960938 557.734375 460.601562 546.265625 463.800781 536.042969 "/>
<path style=" stroke:none;fill-rule:nonzero;fill:rgb(18.399048%,8.999634%,5.099487%);fill-opacity:1;" d="M 369.664062 544.765625 C 363.542969 548.523438 366.074219 560.425781 373.351562 560.914062 C 381.140625 558.425781 377.921875 543.207031 369.664062 544.765625 M 374.414062 528.535156 C 378.382812 527.945312 382.273438 530.226562 384.921875 533.046875 C 391.824219 540.375 394.492188 550.59375 395.511719 560.363281 C 395.902344 568.515625 394.792969 577.195312 390.183594 584.125 C 387.601562 587.984375 382.453125 591.183594 377.800781 589.046875 C 370.511719 586.125 366.703125 578.535156 364.121094 571.574219 C 360.824219 561.113281 360.171875 549.386719 364.042969 538.984375 C 365.984375 534.457031 369.261719 529.585938 374.414062 528.535156 "/>
<path style=" stroke:none;fill-rule:nonzero;fill:rgb(86.299133%,0%,0%);fill-opacity:1;" d="M 1113.421875 546.554688 C 1110.632812 539.785156 1110.851562 531.875 1113.953125 525.246094 C 1115.53125 529.816406 1117.464844 534.503906 1121.261719 537.726562 C 1128.773438 544.285156 1138.671875 547.613281 1148.492188 548.625 C 1161.742188 549.683594 1175.78125 549.265625 1187.753906 542.816406 C 1193.613281 539.855469 1198.28125 535.003906 1201.394531 529.253906 C 1201.972656 534.207031 1201.78125 539.65625 1198.742188 543.835938 C 1195.402344 548.414062 1191.382812 552.605469 1186.613281 555.707031 C 1178.492188 560.886719 1168.664062 561.90625 1159.3125 562.855469 C 1149.503906 563.457031 1139.484375 562.765625 1130.0625 559.84375 C 1123.222656 557.605469 1116.371094 553.40625 1113.421875 546.554688 "/>
<path style=" stroke:none;fill-rule:nonzero;fill:rgb(86.299133%,0%,0%);fill-opacity:1;" d="M 1116.023438 590.113281 C 1142.140625 601.785156 1171.953125 603.605469 1199.753906 597.574219 C 1197.933594 604.066406 1192.851562 609.144531 1186.851562 611.964844 C 1175.421875 617.804688 1162.152344 617.457031 1149.734375 616.125 C 1141.042969 614.886719 1132.203125 612.226562 1125.300781 606.625 C 1120.203125 602.574219 1117.132812 596.445312 1116.023438 590.113281 "/>
<path style=" stroke:none;fill-rule:nonzero;fill:rgb(86.299133%,0%,0%);fill-opacity:1;" d="M 896.414062 621.375 C 945.441406 618.34375 994.464844 614.90625 1043.414062 610.695312 C 1048.8125 609.523438 1052.070312 614.855469 1055.84375 617.6875 C 1050.613281 619.863281 1044.894531 619.964844 1039.363281 620.703125 C 995.921875 625.496094 952.273438 628.226562 908.621094 629.875 C 875.941406 630.894531 843.230469 631.476562 810.554688 632.453125 C 810.453125 630.234375 810.351562 628.023438 810.253906 625.824219 C 838.992188 624.855469 867.703125 623.023438 896.414062 621.375 "/>
<path style=" stroke:none;fill-rule:nonzero;fill:rgb(86.299133%,0%,0%);fill-opacity:1;" d="M 1094.171875 624.632812 C 1094.421875 621.675781 1094.542969 618.496094 1096.402344 616.027344 C 1095.371094 624.945312 1100.320312 633.382812 1107.472656 638.382812 C 1121.722656 648.554688 1140.5625 651.675781 1157.523438 647.816406 C 1163.554688 646.59375 1168.792969 643.285156 1173.921875 640.054688 C 1173.253906 645.292969 1171.164062 650.625 1166.804688 653.875 C 1156.972656 661.003906 1144.3125 662.695312 1132.472656 661.964844 C 1121.78125 661.394531 1110.984375 657.292969 1103.613281 649.34375 C 1097.292969 642.84375 1093.632812 633.726562 1094.171875 624.632812 "/>
<path style=" stroke:none;fill-rule:nonzero;fill:rgb(86.299133%,0%,0%);fill-opacity:1;" d="M 1056.101562 617.925781 C 1065.683594 623.6875 1075.390625 629.4375 1086.125 632.792969 C 1086.710938 640.816406 1090.253906 648.164062 1094.664062 654.753906 C 1087.625 653.335938 1080.683594 650.515625 1075.324219 645.613281 C 1066.800781 638.175781 1058.8125 629.203125 1056.101562 617.925781 "/>
<path style=" stroke:none;fill-rule:nonzero;fill:rgb(86.299133%,0%,0%);fill-opacity:1;" d="M 198.441406 873.074219 C 204.890625 878.457031 211.28125 883.925781 218.0625 888.894531 C 219.902344 890.195312 221.574219 891.734375 222.863281 893.59375 C 220.34375 915.894531 210.351562 936.324219 201.390625 956.605469 C 197.300781 964.886719 190.992188 973.035156 181.863281 975.945312 C 177.683594 977.246094 173.753906 974.574219 170.613281 972.113281 C 185.933594 955.855469 195.730469 934.605469 199.164062 912.59375 C 201.300781 899.476562 200.261719 886.15625 198.441406 873.074219 "/>
<path style=" stroke:none;fill-rule:nonzero;fill:rgb(100%,100%,100%);fill-opacity:1;" d="M 468.792969 539.003906 C 471.574219 536.574219 475.09375 539.726562 475.972656 542.515625 C 477.640625 546.234375 476.472656 552.84375 471.492188 552.945312 C 466.042969 551.15625 464.652344 542.734375 468.792969 539.003906 "/>
<path style=" stroke:none;fill-rule:nonzero;fill:rgb(100%,100%,100%);fill-opacity:1;" d="M 369.664062 544.765625 C 377.921875 543.207031 381.140625 558.425781 373.351562 560.914062 C 366.074219 560.425781 363.542969 548.523438 369.664062 544.765625 "/>
<path style=" stroke:none;fill-rule:nonzero;fill:rgb(100%,100%,100%);fill-opacity:1;" d="M 481.890625 753.625 C 503.683594 750.285156 525.210938 745.4375 546.652344 740.363281 C 548.664062 748.703125 550.210938 757.164062 552.332031 765.484375 C 556.3125 781.453125 559.082031 797.695312 561.742188 813.925781 C 554.921875 819.394531 548.824219 825.675781 542.152344 831.316406 C 536.613281 836.09375 529.761719 838.835938 523.3125 842.105469 C 514.523438 846.476562 505.484375 850.414062 495.992188 853.003906 L 495.683594 851.984375 C 491.484375 819.144531 484.953125 786.613281 481.890625 753.625 "/>
<path style=" stroke:none;fill-rule:nonzero;fill:rgb(100%,100%,100%);fill-opacity:1;" d="M 440.5625 765.683594 C 451.042969 763.195312 461.152344 759.445312 471.371094 756.09375 C 475.492188 782.503906 479.273438 808.957031 482.324219 835.503906 C 483.101562 841.84375 483.601562 848.234375 484.871094 854.503906 C 479.140625 855.867188 473.230469 855.753906 467.421875 856.503906 C 455.53125 858.09375 443.84375 854.59375 432.3125 852.226562 C 421.003906 850.105469 410.28125 845.605469 400.132812 840.316406 C 401.632812 830.464844 401.324219 820.476562 401.941406 810.554688 C 402.011719 797.535156 403.851562 784.625 404.132812 771.625 C 416.421875 770.777344 428.59375 768.542969 440.5625 765.683594 "/>
<path style=" stroke:none;fill-rule:nonzero;fill:rgb(100%,100%,100%);fill-opacity:1;" d="M 304.523438 763.144531 C 309.902344 762.726562 315.574219 764.132812 320.082031 767.125 C 319.503906 771.527344 319.003906 775.933594 318.390625 780.335938 C 313.53125 774.792969 308.953125 769.027344 304.523438 763.144531 "/>
<path style=" stroke:none;fill-rule:nonzero;fill:rgb(100%,100%,100%);fill-opacity:1;" d="M 330.230469 769.273438 C 339.59375 770.59375 348.914062 772.515625 358.402344 772.65625 C 370.203125 772.523438 382.003906 773.785156 393.78125 772.476562 C 392.453125 786.824219 392.222656 801.253906 390.972656 815.617188 C 390.59375 822.253906 389.582031 828.867188 389.703125 835.523438 C 384.890625 833.476562 380.492188 830.617188 375.972656 828.035156 C 360.710938 819.105469 345.8125 809.183594 333.460938 796.414062 C 331.351562 794.15625 328.851562 791.976562 328.050781 788.855469 C 328.84375 782.335938 330.132812 775.867188 330.230469 769.273438 "/>
<path style=" stroke:none;fill-rule:nonzero;fill:rgb(90.19928%,96.499634%,99.198914%);fill-opacity:1;" d="M 278.363281 718.054688 C 284.082031 722.542969 289.582031 727.542969 296.3125 730.527344 C 305.03125 734.246094 313.722656 738.035156 322.5625 741.476562 C 321.523438 750.003906 321.121094 758.59375 320.082031 767.125 C 315.574219 764.132812 309.902344 762.726562 304.523438 763.144531 C 293.894531 749.335938 284.460938 734.445312 278.363281 718.054688 "/>
<path style=" stroke:none;fill-rule:nonzero;fill:rgb(90.19928%,96.499634%,99.198914%);fill-opacity:1;" d="M 332.871094 744.195312 C 345.082031 748.40625 357.460938 752.285156 370.273438 754.09375 C 378.414062 754.816406 386.664062 754.707031 394.710938 756.265625 C 394.652344 761.675781 394.351562 767.085938 393.78125 772.476562 C 382.003906 773.785156 370.203125 772.523438 358.402344 772.65625 C 348.914062 772.515625 339.59375 770.59375 330.234375 769.273438 C 330.59375 760.863281 331.441406 752.484375 332.871094 744.195312 "/>
<path style=" stroke:none;fill-rule:nonzero;fill:rgb(90.19928%,96.499634%,99.198914%);fill-opacity:1;" d="M 426.492188 758.925781 C 441.632812 759.714844 456.722656 757.703125 471.644531 755.34375 L 471.371094 756.09375 C 461.152344 759.445312 451.042969 763.195312 440.5625 765.6875 C 428.59375 768.542969 416.421875 770.777344 404.132812 771.625 C 404.203125 767.074219 404.003906 762.515625 404.351562 757.976562 L 404.621094 757.132812 C 411.902344 757.835938 419.183594 758.574219 426.492188 758.925781 "/>
<path style=" stroke:none;fill-rule:nonzero;fill:rgb(61.999512%,83.499146%,96.899414%);fill-opacity:1;" d="M 546.652344 740.363281 C 549.78125 739.40625 552.8125 738.144531 555.832031 736.894531 C 558.863281 754.023438 561.902344 771.15625 565.804688 788.113281 C 567.09375 794.925781 569.261719 801.523438 570.324219 808.394531 C 567.59375 810.433594 564.574219 812.046875 561.742188 813.925781 C 559.082031 797.695312 556.3125 781.457031 552.332031 765.484375 C 550.210938 757.164062 548.664062 748.707031 546.652344 740.363281 "/>
<path style=" stroke:none;fill-rule:nonzero;fill:rgb(61.999512%,83.499146%,96.899414%);fill-opacity:1;" d="M 322.5625 741.476562 C 325.960938 742.496094 329.511719 743.003906 332.871094 744.195312 C 331.441406 752.484375 330.59375 760.867188 330.230469 769.277344 C 330.132812 775.867188 328.84375 782.335938 328.050781 788.855469 C 324.472656 786.453125 321.203125 783.605469 318.390625 780.335938 C 319.003906 775.933594 319.503906 771.527344 320.082031 767.125 C 321.121094 758.59375 321.523438 750.003906 322.5625 741.476562 "/>
<path style=" stroke:none;fill-rule:nonzero;fill:rgb(61.999512%,83.499146%,96.899414%);fill-opacity:1;" d="M 471.640625 755.34375 C 475.09375 754.984375 478.460938 754.132812 481.890625 753.625 C 484.953125 786.617188 491.484375 819.144531 495.683594 851.984375 C 492.273438 853.566406 488.53125 853.984375 484.871094 854.503906 C 483.601562 848.234375 483.101562 841.84375 482.324219 835.503906 C 479.273438 808.953125 475.492188 782.503906 471.371094 756.09375 Z M 471.640625 755.34375 "/>
<path style=" stroke:none;fill-rule:nonzero;fill:rgb(61.999512%,83.499146%,96.899414%);fill-opacity:1;" d="M 394.710938 756.265625 C 397.921875 756.867188 401.164062 757.277344 404.351562 757.976562 C 404.003906 762.515625 404.203125 767.074219 404.132812 771.625 C 403.851562 784.625 402.011719 797.535156 401.941406 810.554688 C 401.324219 820.476562 401.632812 830.464844 400.132812 840.316406 C 396.414062 839.246094 393.121094 837.234375 389.703125 835.527344 C 389.582031 828.867188 390.59375 822.253906 390.972656 815.617188 C 392.222656 801.253906 392.453125 786.824219 393.78125 772.476562 C 394.351562 767.085938 394.652344 761.675781 394.710938 756.265625 "/>
<path style=" stroke:none;fill-rule:nonzero;fill:rgb(81.199646%,1.199341%,1.199341%);fill-opacity:1;" d="M 473.101562 960.863281 C 479.101562 960.105469 485.132812 959.425781 491.082031 958.304688 C 490.753906 966.433594 491.164062 974.574219 491.023438 982.714844 C 484.890625 983.144531 478.753906 983.164062 472.613281 983.375 C 472.914062 975.875 473.050781 968.363281 473.101562 960.863281 "/>
<path style=" stroke:none;fill-rule:nonzero;fill:rgb(81.199646%,1.199341%,1.199341%);fill-opacity:1;" d="M 405.253906 962.074219 C 411.492188 962.636719 417.773438 962.683594 424.023438 963.15625 C 424.023438 970.175781 424.34375 977.195312 424.390625 984.226562 C 417.902344 984.054688 411.402344 984.054688 404.914062 984.15625 C 404.890625 976.796875 405.042969 969.433594 405.253906 962.074219 "/>
</g>
</svg>
